<svg width="30" height="30" viewBox="0 0 30 30" fill="none" xmlns="http://www.w3.org/2000/svg">
<g clip-path="url(#clip0_673_786)">
<path d="M16.6624 22.5953C21.7249 23.8003 23.5062 19.4703 22.6137 17.8541C22.2562 17.2091 19.0437 15.9703 18.8874 15.9103C17.5074 15.4078 16.9974 16.3453 16.0412 17.5791C14.2049 16.6603 12.9737 15.9366 11.7087 13.8791C11.7799 13.7903 11.8749 13.6853 11.9462 13.6053C12.3887 13.1103 13.2174 12.1878 12.6524 11.0591C12.1774 10.1128 11.9412 9.45281 11.7674 8.96906C11.2637 7.56781 10.8799 7.18781 9.14494 7.18781C7.33869 7.18781 5.93744 9.56156 5.93744 11.6053C5.93744 16.0666 11.9349 21.4666 16.6624 22.5953ZM9.14494 9.06281C9.51994 9.06281 9.70994 9.0753 9.80494 9.0903C10.0074 9.51905 10.2124 10.4141 10.9674 11.8066C10.8499 12.2453 9.18119 13.2741 9.95494 14.6041C11.5362 17.2891 13.1187 18.2203 15.3862 19.3478C16.8962 20.0303 17.3787 18.7941 18.3362 17.7078C18.7799 17.8878 20.2774 18.5503 20.9349 18.8828C20.8762 20.1778 19.6262 21.3728 17.0974 20.7703C12.7574 19.7341 7.81119 14.8516 7.81119 11.6041C7.81244 10.3691 8.67869 9.06281 9.14494 9.06281Z" fill="black"/>
<path d="M0.104112 28.8563C-0.0596383 29.4488 0.384112 30.0426 1.00786 30.0426C1.23286 30.0426 0.865362 30.1001 8.31786 28.1676C11.3516 29.7126 13.6579 29.6638 15.1304 29.8026C28.3241 29.8026 34.7866 13.7113 25.7066 4.34882C13.2604 -7.68118 -6.12339 7.26882 1.98786 22.0076L0.104112 28.8563ZM24.2141 5.51632C24.4304 5.91132 30.6329 11.5051 27.1791 19.8638C25.0529 25.0138 20.1466 28.1876 14.6491 27.8901C10.1766 27.6413 9.01911 26.0438 8.19536 26.2626L2.34161 27.7876L3.89786 22.1326C3.96536 21.8901 3.93161 21.6313 3.80661 21.4138C-3.67214 8.50882 13.2391 -4.75993 24.2141 5.51632Z" fill="black"/>
</g>
<defs>
<clipPath id="clip0_673_786">
<rect width="30" height="30" fill="white"/>
</clipPath>
</defs>
</svg>
