<svg width="254" height="60" viewBox="0 0 254 60" fill="none" xmlns="http://www.w3.org/2000/svg">
<path d="M12.0851 57.8411L17.5679 45.3442C19.0008 45.1322 20.3784 44.9847 21.7146 44.8741C23.0461 44.7634 24.3039 44.7127 25.5249 44.7127C27.9714 44.6897 30.4087 44.9432 32.8045 45.4641C34.9147 45.9481 36.9419 46.7548 38.8079 47.8611C40.6601 48.9721 42.3464 50.3504 43.8115 51.9545C45.4379 53.7523 46.8616 55.7298 48.0641 57.8411H60.1631L34.2236 2.14241H25.875L0 57.8411H12.0851ZM30.1 16.7873L40.1072 38.9138C38.4129 37.7608 36.5242 36.9237 34.5323 36.443C31.9123 35.8145 29.2231 35.5217 26.5293 35.5718C25.0457 35.5718 23.4239 35.6501 21.6823 35.8115L30.1 16.7873ZM92.2258 57.8411L117.912 2.14241H105.223L88.4063 40.7161L71.6217 2.11936H58.6104L83.9003 57.818L92.2258 57.8411ZM155.462 59.9938C159.665 60.0365 163.837 59.2697 167.75 57.7351C171.384 56.3119 174.697 54.1735 177.49 51.4465C180.284 48.7196 182.502 45.4595 184.014 41.8594C187.147 34.235 187.147 25.6794 184.014 18.0596C182.508 14.4883 180.302 11.2548 177.527 8.54985C174.708 5.83692 171.387 3.70106 167.75 2.26227C159.862 -0.754089 151.14 -0.754089 143.253 2.26227C139.611 3.69819 136.286 5.83432 133.466 8.54985C130.691 11.2548 128.486 14.4883 126.979 18.0596C123.857 25.6853 123.857 34.2336 126.979 41.8594C128.49 45.4621 130.709 48.7242 133.505 51.4522C136.3 54.1802 139.615 56.3184 143.253 57.7397C147.155 59.2701 151.311 60.0399 155.499 59.9984M155.499 49.6589C152.894 49.6881 150.311 49.1862 147.906 48.1838C145.647 47.2389 143.604 45.8429 141.903 44.0812C140.157 42.277 138.793 40.1383 137.894 37.7936C136.924 35.2577 136.44 32.5617 136.466 29.8465C136.443 27.1775 136.927 24.5316 137.894 22.047C138.788 19.7544 140.135 17.6661 141.856 15.9076C143.576 14.149 145.634 12.7565 147.906 11.8135C152.78 9.85143 158.223 9.85143 163.096 11.8135C165.364 12.7626 167.418 14.1574 169.137 15.9152C170.856 17.6731 172.205 19.7581 173.104 22.047C174.08 24.527 174.564 27.1775 174.532 29.8465C174.572 32.5823 174.087 35.3004 173.104 37.8535C172.202 40.1847 170.84 42.3105 169.1 44.1043C167.395 45.8559 165.354 47.2573 163.096 48.2069C160.69 49.2079 158.105 49.7097 155.499 49.682M203.618 2.17007V57.8457H215.072V22.4296L245.099 57.8457H254V2.14241H242.514V37.5539L212.492 2.14241L203.618 2.17007Z" fill="#949494"/>
</svg>
