<svg width="248" height="60" viewBox="0 0 248 60" fill="none" xmlns="http://www.w3.org/2000/svg">
<path d="M79.54 7.14258C85.0987 7.14258 89.6074 11.5082 89.6074 16.8613V52.8574H76.0693V40.0996H41.5381V52.8574H28V16.8613C28 11.5082 32.5214 7.14258 38.0674 7.14258H79.54ZM155.113 13.082L155.101 13.0947C155.101 16.6208 153.679 18.9587 150.324 20.9219L132.219 29.8496L150.324 38.7773C153.666 40.7529 155.101 43.0919 155.101 46.6055V52.8574H141.464V47.418C141.464 46.1549 141.233 45.3671 140.004 44.5918L119.106 33.8643C118.3 33.4391 117.801 32.6259 117.801 31.7383V27.9492C117.801 27.049 118.3 26.2358 119.106 25.8232L140.017 15.0957C141.246 14.3205 141.477 13.5324 141.477 12.2695V7.14258H155.113V13.082ZM209.934 7.14258C215.479 7.14275 220 11.4958 220 16.8613V21.6016H206.449V19.2998C206.449 17.7866 205.181 16.549 203.619 16.5488H178.886C177.323 16.5491 176.056 17.7741 176.056 19.2998V40.7002C176.056 42.2257 177.323 43.4636 178.886 43.4639H203.619C205.181 43.4637 206.449 42.2257 206.449 40.7002V38.3984H220V43.1387C220 48.4917 215.479 52.8572 209.934 52.8574H172.571C167.025 52.8572 162.505 48.4917 162.505 43.1387V16.8613C162.505 11.5083 167.025 7.14278 172.571 7.14258H209.934ZM113.806 52.8447H100.245V9.68066C100.245 8.28049 101.411 7.14264 102.845 7.14258H113.806V52.8447ZM44.3301 16.9482C42.5628 16.9484 41.5127 17.8371 41.5127 19.3379V29.6807H76.0312V19.7256C76.0312 18.1372 74.8266 16.9482 73.2129 16.9482H44.3301Z" fill="#949494"/>
</svg>
