<svg width="234" height="60" viewBox="0 0 234 60" fill="none" xmlns="http://www.w3.org/2000/svg">
<path fill-rule="evenodd" clip-rule="evenodd" d="M55.6749 11.3816C55.5903 11.4664 55.5212 16.6806 55.5212 22.9691V34.4025H62.85C69.3949 34.4025 70.3273 34.3613 71.5685 34.0173C73.0667 33.602 74.5797 32.6764 75.3853 31.6824C76.5447 30.2516 76.9804 27.1274 76.2992 25.1291C75.9073 23.9791 74.7254 22.7119 73.5697 22.2023L72.7184 21.8269L73.6535 21.0279C74.9581 19.9133 75.4638 18.8511 75.475 17.2012C75.4949 14.2761 74.1786 12.6658 70.9893 11.7133C70.197 11.4768 68.3634 11.3871 62.8967 11.3177C59.0092 11.2682 55.7595 11.297 55.6749 11.3816ZM80.1062 13.5152V15.7677H83.2818H86.4573V13.5152V11.2626H83.2818H80.1062V13.5152ZM206.924 13.5152V15.7677H210.099H213.275V13.5152V11.2626H210.099H206.924V13.5152ZM193.607 15.051V17.6107H192.275H190.943V19.6585V21.7063H192.275H193.607L193.612 25.9554C193.615 28.2925 193.711 30.6192 193.827 31.126C194.128 32.4505 194.873 33.4658 195.912 33.9684C197.093 34.5397 199.645 34.8532 201.751 34.6855L203.441 34.5509V32.2652V29.9797L202.761 30.0589C202.388 30.1026 201.705 30.0366 201.244 29.9127C200.088 29.6015 199.958 29.1108 199.958 25.0546V21.7063H201.699H203.441V19.6585V17.6107H201.699H199.958V15.051V12.4913H196.782H193.607V15.051ZM62.5302 18.3786L62.5894 20.1705H64.9819C67.0922 20.1705 67.4429 20.1197 67.9526 19.7406C68.5543 19.2934 68.7621 18.5617 68.5394 17.6748C68.3388 16.876 67.3286 16.5868 64.7392 16.5868H62.471L62.5302 18.3786ZM97.0084 17.4105C93.1658 18.1814 90.4778 20.947 89.8915 24.7327C89.2873 28.6341 91.3485 32.5984 94.7669 34.1094C99.0266 35.9924 104.412 34.6777 106.723 31.1905C108.536 28.4535 108.665 24.1837 107.018 21.3696C105.225 18.3053 100.959 16.618 97.0084 17.4105ZM121.316 17.4088C120.262 17.6308 118.928 18.3772 118.213 19.146L117.701 19.6964L117.598 18.7049L117.496 17.7131L114.474 17.6564L111.452 17.5999V26.0011V34.4025H114.628H117.803L117.815 29.539C117.827 24.2699 117.94 23.5589 118.869 22.8704C119.701 22.2539 121.183 22.3294 121.878 23.0236L122.413 23.5579L122.474 28.9802L122.534 34.4025H125.819H129.103L129.025 28.208C128.938 21.2994 128.822 20.6031 127.513 19.0741C126.303 17.6611 123.586 16.9311 121.316 17.4088ZM138.859 17.5196C136.138 18.1788 134.194 19.6933 133.02 22.0673C132.254 23.615 132.247 23.6549 132.247 26.109C132.247 28.5585 132.256 28.6056 133.012 30.1349C134.325 32.7911 136.556 34.3439 139.776 34.8438C142.827 35.3174 145.772 34.4744 147.816 32.5429C152.076 28.5153 151.16 20.9025 146.107 18.343C143.965 17.2583 141.223 16.9468 138.859 17.5196ZM177.578 17.3982C174.231 18.0115 172.246 19.6771 172.057 22.0309L171.993 22.8326L174.913 22.8749L177.833 22.9173L178.118 22.2371C178.541 21.2238 180.09 20.7926 181.451 21.3096C182.165 21.581 182.332 21.8384 182.336 22.6743C182.34 23.649 181.731 23.9308 178.654 24.3756C174.254 25.0118 172.651 25.7193 171.691 27.4493C171.282 28.1881 171.188 28.638 171.197 29.8151C171.218 32.4133 172.431 34.0124 174.931 34.7389C177.233 35.4079 180.713 34.7746 181.947 33.4621C182.458 32.9178 182.739 33.0868 182.745 33.9417C182.748 34.4 182.766 34.4025 185.997 34.4025H189.244L188.967 33.334C188.768 32.5656 188.69 30.7359 188.69 26.8212C188.69 21.4057 188.687 21.3717 188.171 20.3361C187.176 18.3412 185.03 17.4313 181.007 17.3005C179.655 17.2565 178.112 17.3005 177.578 17.3982ZM222.494 17.6845C218.544 18.7593 216.138 21.9883 216.146 26.2032C216.155 31.4592 219.757 34.8309 225.369 34.8368C229.479 34.8409 232.307 33.0884 233.551 29.7657C234.3 27.7634 234.42 27.8496 230.894 27.8496C228.104 27.8496 227.821 27.8826 227.82 28.208C227.82 28.405 227.64 28.8608 227.42 29.2208C226.607 30.5537 224.252 30.6004 223.327 29.3017C221.978 27.4085 222.478 23.0132 224.138 22.174C225.46 21.505 227.078 22.0468 227.613 23.3375L227.871 23.9588H230.935H234L233.86 23.2933C233.292 20.5816 230.933 18.2984 228.002 17.623C226.782 17.3419 223.624 17.3771 222.494 17.6845ZM80.248 17.742C80.1701 17.82 80.1062 21.6004 80.1062 26.1432V34.4025H83.284H86.4618L86.4084 26.0578L86.3549 17.7131L83.3723 17.6566C81.7321 17.6257 80.326 17.664 80.248 17.742ZM151.812 17.8589C151.812 18.0008 153.033 21.7812 154.525 26.2597L157.238 34.4025H161.033H164.829L167.529 26.1602C169.014 21.627 170.158 17.8462 170.07 17.7586C169.983 17.6711 168.537 17.6251 166.857 17.6562L163.802 17.7131L162.823 21.1943C162.285 23.109 161.671 25.5049 161.46 26.5185C161.038 28.5422 161.012 28.5278 160.537 26.0066C160.357 25.0493 159.809 22.7916 159.32 20.9896L158.431 17.7131L155.122 17.6568C152.566 17.6134 151.812 17.6593 151.812 17.8589ZM206.924 26.0066V34.4025H210.099H213.275V26.0066V17.6107H210.099H206.924V26.0066ZM97.5439 22.2455C96.6955 22.8393 96.3003 24.067 96.3003 26.109C96.3003 29.0301 97.0934 30.3069 98.908 30.3069C100.957 30.3069 101.724 29.1321 101.714 26.0123C101.707 23.8757 101.447 23.1084 100.468 22.3386C99.7926 21.8081 98.2395 21.7585 97.5439 22.2455ZM139.915 22.2137C139.018 22.7015 138.597 23.9828 138.605 26.2056C138.611 28.3423 138.872 29.1096 139.851 29.8794C140.526 30.4099 142.079 30.4595 142.775 29.9725C143.621 29.3797 144.018 28.1508 144.023 26.1012C144.03 23.1792 143.191 21.91 141.261 21.9223C140.811 21.9252 140.205 22.0562 139.915 22.2137ZM62.487 26.8257V29.1176L65.3407 29.0467C67.8555 28.9843 68.2626 28.9249 68.7705 28.5454C69.8961 27.705 69.8961 25.9464 68.7705 25.106C68.2626 24.7265 67.8555 24.6672 65.3407 24.6047L62.487 24.5339V26.8257ZM181.88 27.1472C181.816 27.2113 181.04 27.4446 180.156 27.6653C178.275 28.1349 177.75 28.56 177.75 29.6121C177.75 31.5765 180.647 31.9134 181.965 30.1022C182.47 29.4084 182.729 27.0305 182.3 27.0305C182.133 27.0305 181.945 27.0829 181.88 27.1472Z" fill="#949494"/>
<path d="M17.4155 59.9999L20.2303 54.3686C21.7783 51.2713 23.0963 48.7372 23.1588 48.7372C23.2856 48.7372 28.6927 59.6039 28.6865 59.8464C28.6845 59.9309 26.1475 59.9999 23.049 59.9999H17.4155Z" fill="#949494"/>
<path d="M23.1504 0C35.9362 0 46.3017 10.36 46.3018 23.1396C46.3018 35.9194 35.9363 46.2793 23.1504 46.2793C10.3647 46.279 0 35.9193 0 23.1396C0.000107253 10.3601 10.3648 0.000250378 23.1504 0ZM23.1514 9.21484C15.4573 9.21484 9.2199 15.4493 9.21973 23.1396C9.21973 30.8301 15.4572 37.0645 23.1514 37.0645C30.8453 37.0642 37.082 30.83 37.082 23.1396C37.0819 15.4494 30.8452 9.21506 23.1514 9.21484Z" fill="#949494"/>
</svg>
