<svg width="194" height="30" viewBox="0 0 194 30" fill="none" xmlns="http://www.w3.org/2000/svg">
<path d="M51.9099 23.1701C46.2515 23.1701 42.8823 21.2408 42.8823 15.3531C42.8823 10.0058 46.2515 7.77734 52.0563 7.77734H59.2904V11.76H52.4021C49.6957 11.76 48.8116 12.5311 48.8116 15.3531C48.8116 18.4431 49.6957 19.1839 52.5266 19.1839H59.2904V23.1701H51.9099Z" fill="#949494"/>
<path d="M82.124 7.77691V23.1697H76.3677V17.3794H69.9946V23.1697H64.2383V7.77691H69.9946V13.246H76.3677V7.77691H82.124Z" fill="#949494"/>
<path d="M85.3003 23.1701L91.5984 7.77734H96.8165C98.1662 7.77734 98.708 8.25039 99.0757 9.11302L105.129 23.1701H98.9789L95.0679 13.7195C94.7936 13.0493 94.4028 13.0493 94.1319 13.7195L90.2671 23.1701H85.3003Z" fill="#949494"/>
<path d="M120.754 22.38L113.493 15.6482C113.2 15.3723 113.001 15.4511 113.001 15.8674V23.1707H108.204V7.77795H111.234C112.313 7.77795 113.076 8.00056 113.595 8.47014L121.123 15.4511C121.419 15.7201 121.615 15.5277 121.615 15.2053V7.77795H126.412V22.4287C126.412 22.8982 126.141 23.1707 125.676 23.1707H123.141C122.231 23.1707 121.367 22.9469 120.754 22.38Z" fill="#949494"/>
<path d="M148.827 23.1701H140.093C134.039 23.1701 130.916 21.2153 130.916 15.3265C130.916 10.0812 134.089 7.77734 140.239 7.77734H149.563V11.7415H140.484C137.585 11.7415 136.822 12.4557 136.822 15.3265C136.822 18.5184 137.585 19.286 140.608 19.286H144.003C144.247 19.286 144.398 19.1387 144.398 18.8894V17.5538C144.398 17.3045 144.247 17.1572 144.003 17.1572H141.273V13.8401H148.827C149.292 13.8401 149.563 14.1125 149.563 14.581V22.4292C149.563 22.8976 149.292 23.1701 148.827 23.1701Z" fill="#949494"/>
<path d="M152.887 23.1701L159.185 7.77734H164.403C165.753 7.77734 166.295 8.25039 166.663 9.11302L172.713 23.1701H166.566L162.655 13.7195C162.38 13.0493 161.99 13.0493 161.719 13.7195L157.854 23.1701H152.887Z" fill="#949494"/>
<path d="M188.342 22.38L181.081 15.6482C180.788 15.3723 180.589 15.4511 180.589 15.8674V23.1707H175.792V7.77795H178.818C179.901 7.77795 180.664 8.00056 181.182 8.47014L188.71 15.4511C189.003 15.7201 189.203 15.5277 189.203 15.2053V7.77795H194V22.4287C194 22.8982 193.729 23.1707 193.263 23.1707H190.729C189.819 23.1707 188.955 22.9469 188.342 22.38Z" fill="#949494"/>
<path d="M17.0977 0C2.9408 0 -0.779787 5.18347 0.128683 15.3682C1.03715 25.5753 4.72305 30 17.0977 30C29.4724 30 33.1621 25.5753 34.0696 15.3682C34.9752 5.18735 31.2575 0 17.0977 0ZM30.981 4.71251C33.0109 6.96072 33.7527 10.3262 33.3095 15.3023C32.8413 20.5808 31.6245 23.862 29.3683 25.9416C26.9396 28.183 23.0398 29.2257 17.0977 29.2257C11.1584 29.2257 7.25868 28.183 4.82999 25.9416C2.57375 23.862 1.357 20.5808 0.888791 15.3023C0.445635 10.3233 1.18744 6.95684 3.2144 4.70961C5.60937 2.06118 10.0024 0.771366 17.0977 0.771366C24.193 0.771366 28.586 2.06118 30.981 4.71251Z" fill="#949494"/>
<path d="M31.1013 15.0374C30.6928 19.5794 29.6687 22.3838 27.7766 24.1223C25.9163 25.8346 22.9655 26.7203 18.5725 26.8783C18.4656 26.8812 18.3962 26.7678 18.4472 26.6787L24.084 16.2642C24.7507 15.0374 25.0965 13.6652 25.0965 12.2717V3.88842C25.0965 3.79442 25.1842 3.73046 25.2757 3.75953C26.9751 4.30317 28.2766 5.07745 29.1909 6.08236C30.8749 7.93519 31.4818 10.7794 31.1013 15.0374ZM3.1969 15.0374C2.81637 10.7794 3.4233 7.93519 5.11018 6.08236C6.02443 5.07745 7.32596 4.30317 9.02633 3.75953C9.11111 3.73046 9.20167 3.79442 9.20167 3.88842V12.2717C9.20167 13.6652 9.55041 15.0374 10.2142 16.2642L15.8509 26.6757C15.901 26.7678 15.8326 26.8812 15.7257 26.8783C11.3288 26.7203 8.38472 25.8346 6.52154 24.1223C4.62945 22.3838 3.60538 19.5794 3.1969 15.0374ZM23.5724 3.47754C21.0898 9.71438 18.3461 15.5142 17.4511 17.3796C17.3278 17.6325 16.9694 17.6325 16.8471 17.3796C15.9521 15.5142 13.2084 9.71438 10.7257 3.47754C10.6949 3.39905 10.7421 3.31086 10.823 3.29148C12.5928 2.9339 14.6949 2.75075 17.1486 2.75075C19.6033 2.75075 21.7025 2.9339 23.4742 3.29148C23.5599 3.31086 23.6033 3.39905 23.5724 3.47754ZM17.1486 1.37566C4.43196 1.37566 1.01292 5.98158 1.83564 15.1605C2.65259 24.3142 5.98686 28.2786 17.1486 28.2786C28.3075 28.2786 31.6417 24.3142 32.4616 15.1605C33.2824 5.98158 29.8662 1.37566 17.1486 1.37566Z" fill="#949494"/>
</svg>
