<svg width="168" height="40" viewBox="0 0 168 40" fill="none" xmlns="http://www.w3.org/2000/svg">
<g clip-path="url(#clip0_392_182)">
<path d="M23.8272 39.9541C22.4969 40.014 20.918 40.014 19.5878 39.9541C17.2406 39.8482 11.6345 39.2828 9.48755 38.4678C8.69303 38.1661 6.69967 36.1844 6.06487 35.4772C-1.84184 26.6454 -1.62957 12.5696 6.56018 3.97344C7.86011 2.60702 8.84264 1.76998 10.7005 1.29053C16.1267 -0.109859 23.6028 -0.147816 29.1442 0.629291C31.4913 0.958912 33.7131 1.18066 35.5407 2.68093C43.3322 9.07558 45.1133 21.2196 40.9608 30.0874C39.6588 32.8682 36.1532 37.8185 33.1167 38.6656C30.3026 39.4506 26.6979 39.8242 23.8252 39.9561L23.8272 39.9541ZM9.08726 33.5934C9.55628 34.1587 10.2133 34.9958 10.9047 35.2834C14.006 36.5779 22.4787 36.6758 25.9459 36.3742C27.3186 36.2543 31.6348 35.7769 32.7023 35.2735C32.9934 35.1356 34.8109 33.2698 35.1303 32.8922C41.4884 25.3888 41.262 13.9779 34.728 6.66435C33.147 4.89638 32.6618 4.69661 30.3288 4.23714C25.861 3.35615 15.2998 3.07648 11.1049 4.66665C10.4822 4.90238 9.48552 5.81133 9.08928 6.3607H23.9303C24.4256 6.3607 26.3987 7.27765 26.9183 7.59328C29.9912 9.45314 31.8208 13.6743 32.3101 17.0944H14.7418C14.1798 18.9762 14.1778 20.9739 14.7418 22.8597H32.3101C31.8471 26.4236 29.7284 31.0983 26.3179 32.7643C25.9742 32.9321 24.1709 33.5934 23.9303 33.5934H9.08726ZM27.6643 13.7162C26.9567 11.8224 25.3758 10.0924 23.2712 9.79275L6.59657 9.77278C2.71902 15.702 2.69679 24.2601 6.59657 30.1833L23.4774 30.1673C25.4465 29.6579 26.9992 28.1057 27.6643 26.2398H12.3179C10.4317 22.1166 10.4337 17.8335 12.3179 13.7162H27.6643Z" fill="#949494"/>
<path d="M168 9.34325V11.331H164.769V17.8894H162.548V11.331H159.317V9.34125L168 9.34325Z" fill="#949494"/>
<path d="M133.672 9.34325V15.9037H136.296V9.34325H138.518V15.9037H141.142V9.34325H143.364V15.9037C143.364 15.9736 144.777 15.8338 144.777 15.9037V19.8791C144.415 19.8212 142.636 19.959 142.555 19.8791C142.474 19.7992 142.614 18.227 142.555 17.8894H131.45V9.34125H133.672V9.34325Z" fill="#949494"/>
<path d="M77.5386 22.5621C77.6619 22.1665 79.6532 22.1505 79.9221 22.3044C80.286 22.5141 81.7881 25.4328 82.4856 25.8383C82.8212 25.8383 84.6892 22.5141 85.0531 22.3084C85.3321 22.1505 87.4346 22.1865 87.4346 22.5621V30.8106C87.004 30.7706 85.0106 30.9844 85.0106 30.5129V25.8423L82.4876 29.2184L79.9646 25.8423V30.8126H77.5406V22.5641L77.5386 22.5621Z" fill="#949494"/>
<path d="M129.208 13.6463C129.208 16.3332 126.994 18.5127 124.265 18.5127C121.536 18.5127 119.322 16.3332 119.322 13.6463C119.322 10.9594 121.536 8.77991 124.265 8.77991C126.994 8.77991 129.208 10.9594 129.208 13.6463ZM123.523 10.9794C120.925 11.4488 120.932 16.0016 123.677 16.2973C124.983 16.4371 126.02 16.3152 126.647 15.0487C127.193 13.95 127.033 12.8612 126.37 11.8584C125.654 10.7736 124.773 10.7516 123.523 10.9794Z" fill="#949494"/>
<path d="M150.029 9.34328V14.9089L154.153 9.52707C154.707 9.12953 155.801 9.42919 156.49 9.34328V17.8915H154.269V12.5236L150.187 17.8475L147.805 17.8915V9.34328H150.027H150.029Z" fill="#949494"/>
<path d="M85.2108 9.34326V11.331H80.1627C80.102 11.331 80.1061 12.3178 79.9605 12.5236H84.301C84.7437 12.5236 84.5901 14.1377 84.6043 14.5113H79.9605C80.0575 14.7131 80.0919 15.9037 80.1627 15.9037H85.2108V17.8914H78.143C77.6154 15.0527 77.6174 12.182 78.143 9.34326H85.2108Z" fill="#949494"/>
<path d="M103.788 29.4182C103.707 29.4961 103.869 30.7306 103.788 30.8106C103.707 30.8905 101.928 30.7506 101.566 30.8106V22.2624H107.12C108.753 22.2624 109.546 24.4259 109.566 25.7744C109.58 26.8152 108.802 29.4182 107.524 29.4182C106.984 29.4182 103.919 29.2883 103.788 29.4182ZM107.019 24.2501H103.788V27.4304H107.019C107.324 26.4016 107.324 25.2749 107.019 24.2501Z" fill="#949494"/>
<path d="M111.664 16.499C111.583 16.5769 111.745 17.8115 111.664 17.8914C111.583 17.9713 109.804 17.8315 109.442 17.8914V9.34326H115.198C115.956 9.34326 117.048 10.8455 117.224 11.5248C117.578 12.8952 117.048 16.499 115.198 16.499C114.683 16.499 111.79 16.3752 111.664 16.499ZM114.895 11.331H111.664V14.5113H114.895C115.168 13.4166 115.166 12.4257 114.895 11.331Z" fill="#949494"/>
<path d="M56.3355 18.0892V16.1015H60.8782C60.9934 16.1015 61.6869 14.9428 61.7859 14.7091H58.2521C57.8093 14.7091 57.963 13.093 57.9488 12.7214H61.7859C61.883 12.4477 60.9712 11.1312 60.8782 11.1312H56.3355V9.14349H60.8782C61.6444 9.14349 62.8513 10.1304 63.288 10.7457C64.406 12.3238 64.5253 14.4514 63.5306 16.1275C63.1647 16.7448 61.792 18.0872 61.0783 18.0872H56.3335L56.3355 18.0892Z" fill="#949494"/>
<path d="M96.0874 22.2904C96.4756 22.5381 98.6954 29.8437 99.3463 30.8086C98.7944 30.7167 97.5329 30.9904 97.1185 30.7187C96.7647 30.4869 96.8556 29.4741 96.5989 29.4062C96.233 29.3083 92.1856 29.3522 92.0562 29.536C91.9046 29.7498 91.7873 30.6927 91.6458 30.7826C91.3608 30.9624 89.9254 30.7127 89.4543 30.8086L92.5778 22.4562C92.8305 22.2025 95.8852 22.1585 96.0894 22.2904H96.0874ZM92.8851 27.4304H95.9135C95.4385 26.5475 95.212 25.5566 94.7915 24.6496C94.6743 24.3959 94.834 24.1782 94.3993 24.2481C93.718 24.356 93.2025 26.7972 92.8851 27.4304Z" fill="#949494"/>
<path d="M75.7211 30.8086C75.3127 30.7307 73.6954 30.9345 73.5235 30.7866C73.471 30.7427 73.3113 29.7858 73.1172 29.5421C72.9757 29.3643 68.9788 29.3003 68.5765 29.4062C68.3198 29.4741 68.4108 30.487 68.057 30.7187C67.6405 30.9904 66.381 30.7187 65.8291 30.8086C66.4821 29.8557 68.6999 22.5361 69.0921 22.2964C69.3225 22.1566 72.3449 22.2005 72.5976 22.4562L75.7211 30.8086ZM72.2883 27.4305C71.9709 26.7972 71.4574 24.356 70.7741 24.2482C70.3394 24.1802 70.4991 24.396 70.3819 24.6497C69.9877 25.5007 69.5955 26.4996 69.462 27.4305H72.2883Z" fill="#949494"/>
<path d="M120.75 30.8086C120.279 30.7127 118.841 30.9624 118.556 30.7826C118.415 30.6927 118.297 29.7498 118.146 29.536C118.014 29.3522 113.961 29.3083 113.603 29.4062C113.405 29.4601 113.257 30.6467 113.041 30.7766C112.72 30.9704 111.347 30.7107 110.854 30.8086C111.466 29.7997 113.635 22.644 114.076 22.3543C114.377 22.1565 117.381 22.1745 117.622 22.4582L120.748 30.8086H120.75ZM117.317 27.4304C116.955 26.909 116.445 24.2441 115.803 24.2441C115.16 24.2441 114.721 26.8931 114.288 27.4304H117.317Z" fill="#949494"/>
<path d="M74.7123 9.34326V17.8914H72.4905V11.331H69.4621L68.1581 17.6997C67.8771 18.0952 66.3609 17.8055 65.8271 17.8894L67.6446 9.34326H74.7123Z" fill="#949494"/>
<path d="M90.6632 9.34325V12.5236C91.0797 12.5476 91.4173 12.5755 91.7873 12.3378C92.3654 11.9682 93.7705 9.59496 94.1364 9.3852C94.5327 9.15746 96.1399 9.45712 96.7201 9.34325L93.3237 13.6163L97.1244 17.8854C96.3481 17.7915 95.2119 18.0772 94.5044 17.7835C93.4956 17.366 92.2543 14.0958 90.6632 14.5073V17.8874H88.4414V9.33925H90.6632V9.34325Z" fill="#949494"/>
<path d="M64.0097 22.0646V24.0524H59.6692C59.093 24.0524 58.5714 25.7884 58.5492 26.3317C58.5229 26.945 58.9393 29.0226 59.6692 29.0226H64.0097V31.0103H59.467C59.3356 31.0103 58.1671 30.443 57.9669 30.3012C55.6319 28.667 55.7471 23.9005 58.345 22.5501C58.533 22.4522 59.562 22.0666 59.6712 22.0666H64.0117L64.0097 22.0646Z" fill="#949494"/>
<path d="M107.018 9.34326V11.331H103.788V17.8894H101.568V11.331H98.3354V9.34326H107.018Z" fill="#949494"/>
</g>
<defs>
<clipPath id="clip0_392_182">
<rect width="168" height="40" fill="white"/>
</clipPath>
</defs>
</svg>
