<svg width="226" height="60" viewBox="0 0 226 60" fill="none" xmlns="http://www.w3.org/2000/svg">
<path d="M128.642 8.39604C129.067 8.79653 129.448 9.596 129.56 10.1694C129.779 22.6985 129.598 35.2609 129.652 47.8021C129.721 48.5818 130.196 48.4286 130.711 48.0949L192.689 8.86783C193.733 8.18821 194.864 7.62387 196.131 7.53285C200.914 7.19001 206.102 7.79833 210.928 7.53285C212.535 7.65118 213.733 8.70703 213.999 10.2984V38.1812C213.844 39.7255 213.189 41.0256 212.025 42.042C206.019 45.8831 199.726 49.2963 193.595 52.9508C193.207 53.0555 192.934 53.0206 192.908 52.5716L192.913 22.5695C192.834 22.0765 192.859 21.811 192.281 21.946L145.661 51.361C145.032 51.6432 144.404 51.8935 143.714 51.9921C133.017 52.1256 122.277 52.1468 111.583 51.9815C110.201 51.7372 109.208 50.7952 108.922 49.4132C108.633 36.8735 108.873 24.2898 108.8 11.7335C108.831 11.3391 108.521 11.242 108.187 11.3573L77.6606 29.1974C77.5058 29.34 77.298 29.5645 77.4664 29.7693C78.175 30.4504 78.8549 31.1619 79.5559 31.8522C86.2388 38.4209 93.1386 44.8257 99.6788 51.5233C99.8154 52.0437 99.4664 52.0042 99.0536 52.0786H78.7957C77.9231 51.9906 77.081 51.8465 76.3389 51.3504C71.7926 47.0087 67.3101 42.5896 62.8002 38.2085C62.65 38.0962 62.4543 38.1205 62.2828 38.1539C54.5969 42.5441 47.0248 47.1483 39.3192 51.5036C38.5241 51.8571 37.6515 52.0285 36.7835 52.077C30.1842 52.4472 23.2403 51.7934 16.606 52.0725C14.5529 51.9891 13.1553 50.8923 12.999 48.7806V22.4891C13.1508 20.0498 14.0461 18.604 16.0415 17.2721L33.5696 7.05196C33.864 6.9306 34.0203 7.02314 34.1113 7.31592C34.2266 18.6268 34.1326 29.9604 34.1584 41.2804C34.1993 41.7765 34.2919 41.9707 34.8397 41.8038L91.7562 8.5083C92.5711 8.07746 93.3678 7.69973 94.2934 7.55713C105.161 7.3948 116.076 7.40087 126.944 7.55409C127.465 7.65421 128.254 8.03044 128.642 8.39604Z" fill="#949494"/>
</svg>
