<svg width="330" height="60" viewBox="0 0 330 60" fill="none" xmlns="http://www.w3.org/2000/svg">
<mask id="mask0_392_235" style="mask-type:luminance" maskUnits="userSpaceOnUse" x="27" y="5" width="275" height="50">
<path d="M302 5H27V55H302V5Z" fill="white"/>
</mask>
<g mask="url(#mask0_392_235)">
<path d="M76.8947 7.33906L75.3897 9.61978C85.5192 13.8303 89.571 21.4326 89.571 29.6197C89.571 33.7134 88.4712 37.3974 86.3295 37.3974C79.3257 37.3974 64.2762 37.3974 59.8195 37.3974C56.2307 37.3974 55.131 36.1109 56.7517 32.8362C59.6457 27.0467 68.3283 15.994 73.7113 9.32738C74.5215 8.33323 75.1582 6.81276 72.322 6.05252C69.428 5.29228 64.7972 4.94141 60.8613 4.94141C40.8918 4.99989 27 15.8771 27 29.9707C27 42.8947 39.0396 54.9999 60.8035 54.9999C70.412 54.9999 82.22 52.2514 88.8765 44.5904H83.146C76.6053 50.5554 68.1545 51.9004 60.8613 51.9004C43.3229 51.9004 32.2094 42.6607 32.2094 29.9707C32.2094 18.2163 44.7699 7.68996 60.6297 7.68996C62.54 7.68996 63.1765 8.09931 61.1507 10.6139C57.099 15.7016 49.8636 25.8186 46.4485 31.7249C42.8019 38.0409 46.5064 43.1869 54.7257 43.1869C60.514 43.1869 81.2938 43.1869 87.9502 43.1869C89.9762 43.1869 91.1917 42.0174 92.3495 39.8537C93.3335 38.1577 94.7805 34.6489 94.7805 29.9707C94.7805 20.4385 87.7187 11.6666 76.8947 7.33906Z" fill="#949494"/>
<path d="M293.55 28.0997C288.745 28.0997 277.748 28.0997 271.033 28.0997C271.785 25.1757 273.985 23.1874 278.21 23.1874C283.188 23.1874 299.743 23.1874 299.743 23.1874V18.2751C299.743 18.2751 288.513 18.2751 276.821 18.2751C263.74 18.2751 260.672 27.6319 260.672 32.9534C260.672 32.9534 283.825 32.9534 288.573 32.9534C292.393 32.9534 292.393 38.1582 288.688 38.1582C284.868 38.1582 257.894 38.1582 257.894 38.1582V18.2751H248.632V38.1582C248.632 38.1582 238.329 38.1582 233.236 38.1582C229.126 38.1582 227.39 36.1699 227.39 33.0704C227.39 29.3277 227.39 18.2751 227.39 18.2751H212.514L199.201 26.7547L187.74 18.2751C174.774 18.2751 174.832 18.2751 154.747 18.2751C145.196 18.2751 138.424 23.8892 137.614 30.9652H143.807C141.318 32.6027 139.408 35.2927 138.308 38.2167C128.816 38.2167 120.944 38.2167 118.802 38.2167C115.097 38.2167 113.419 36.2869 113.419 32.6612C113.419 30.2634 113.419 18.2751 113.419 18.2751H104.1C104.1 18.2751 104.1 24.8248 104.1 30.4974C104.1 38.2752 108.267 43.1289 117.76 43.1289C125.748 43.1289 182.762 43.1289 182.762 43.1289L196.133 34.6494L207.594 43.1874H221.312L203.426 29.9712L218.013 20.7898C218.013 24.0061 218.013 30.4974 218.013 34.7664C218.013 39.0939 223.569 43.2459 228.605 43.2459C235.146 43.2459 282.668 43.2459 293.55 43.2459C304.838 43.1874 304.778 28.0997 293.55 28.0997ZM181.084 38.2752C181.084 38.2752 165.339 38.2752 149.538 38.2752C149.885 35.5852 151.216 32.9534 155.557 32.9534C163.314 32.9534 175.122 32.9534 175.122 32.9534V28.0997H149.074C149.538 26.1114 151.563 23.2459 156.252 23.2459C164.008 23.2459 176.916 23.2459 176.916 23.2459V20.5558L191.792 31.4914L181.084 38.2752Z" fill="#949494"/>
</g>
</svg>
