<svg width="72" height="60" viewBox="0 0 72 60" fill="none" xmlns="http://www.w3.org/2000/svg">
<g clip-path="url(#clip0_392_238)">
<path d="M33.5469 23.3863C33.4256 23.3863 33.3789 23.3208 33.3789 23.2366C33.3789 23.1524 33.4723 23.0589 33.6589 23.0215H33.8736C38.9046 21.9176 41.4621 19.7848 43.5156 16.6136C44.953 14.144 46.2504 11.5902 47.4078 8.97095H38.7179L30.3174 26.2675H41.0888C41.2661 26.2768 41.4341 26.1833 41.5181 26.0336C41.5181 26.0336 41.6581 25.781 41.8261 25.4349C42.1995 24.6679 42.7595 23.4237 42.7595 23.4237H33.4816" fill="#949494"/>
<path d="M37.1968 35.7905C30.0283 35.7905 23.6159 33.5079 19.3503 29.9252H27.9655C28.1616 29.9345 28.3482 29.8316 28.4416 29.6632C28.4416 29.6632 28.6003 29.3826 28.7869 28.9991C29.207 28.1384 30.0377 26.3985 30.0377 26.3985H19.4903C19.3503 26.3985 19.3036 26.3237 19.3036 26.2301C19.3036 26.1366 19.4157 26.0337 19.621 25.9869L19.873 25.9401C25.4734 24.7147 28.4976 22.3199 30.7937 18.7746C32.5485 16.0617 35.7594 8.95229 35.7594 8.95229H26.0428L17.0542 27.6614C15.1034 25.4069 14.0113 22.5351 13.9646 19.551C13.9646 10.5426 24.372 3.24602 37.1968 3.24602C44.2346 3.24602 50.535 5.44434 54.8006 8.91487H50.1337L43.1332 23.218H53.4005C53.6152 23.2273 53.8112 23.1338 53.9419 22.9654C54.0726 22.7409 54.1846 22.5164 54.2779 22.2732L54.838 20.8606H45.8774C45.7654 20.8606 45.7094 20.8138 45.7094 20.739C45.7094 20.6642 45.8027 20.5893 45.9801 20.5613H46.2041C49.7883 19.9532 52.9805 17.942 55.09 14.9673C55.9114 13.7979 56.6488 12.5725 57.2928 11.3003C59.2809 13.5734 60.401 16.4827 60.4477 19.5136C60.4477 28.5033 50.0497 35.7998 37.2248 35.7998M37.1968 0C21.8518 0 9.40967 8.72778 9.40967 19.4949C9.40967 30.2619 21.8518 38.9897 37.1968 38.9897C52.5418 38.9897 64.984 30.2619 64.984 19.4949C64.984 8.72778 52.5418 0 37.1968 0Z" fill="#949494"/>
<path d="M4.84521 46.0244H9.12949L4.92921 56.4454C4.72387 57.016 4.92921 57.3247 5.39591 57.3247L13.7965 57.3808C13.6564 58.2882 13.3391 59.1582 12.8631 59.944H1.50366C0.766275 60.0282 0.0942313 59.5043 0.0102258 58.7653C-0.017776 58.5314 0.0102258 58.2882 0.112899 58.0731C0.271576 57.5399 0.252908 57.6427 0.252908 57.6427L4.84521 46.0244Z" fill="#949494"/>
<path d="M20.0318 46.0244H24.8201L19.2197 59.944H14.3848L20.0318 46.0244Z" fill="#949494"/>
<path d="M40.501 46.0243H27.7882C27.0321 46.0243 26.2854 46.1553 25.5293 47.9701L20.993 59.2891C20.993 59.2891 20.993 59.3452 20.993 59.3733C20.937 59.5042 20.7317 59.9439 21.1424 59.9439H25.1C25.3893 59.9532 25.66 59.8036 25.7907 59.5416C25.8467 59.4481 25.8934 59.3452 25.94 59.2423L27.7228 55.0515C27.8535 54.6773 28.1988 54.4341 28.5909 54.4247L35.302 54.2563C36.002 53.695 36.4687 52.8906 36.5901 52.0019L29.2069 51.8522C29.0109 51.8522 28.8242 51.6745 28.9456 51.3564L29.7763 49.2703C29.8976 48.9897 30.1776 48.8026 30.4857 48.812H38.8115C39.6703 48.0917 40.2583 47.1001 40.501 46.0056" fill="#949494"/>
<path d="M31.7548 58.9336L32.1095 58.6249L45.9611 46.9598C45.9611 46.9598 46.3437 46.6418 46.6331 46.4453C47.8932 45.5099 49.732 46.2115 49.7693 47.6427V59.0365C49.816 59.5136 49.4613 59.9252 48.9946 59.972C48.9946 59.972 48.9759 59.972 48.9666 59.972H40.566C40.2767 59.392 40.1087 58.7559 40.0713 58.1011L45.8677 57.9327C46.2504 57.9327 46.4464 57.6614 46.4651 57.2592V53.1525C46.4651 52.5913 45.9704 52.5071 45.597 52.8158L37.8312 59.6352C37.5885 59.8504 37.2805 59.972 36.9631 60.0001H32.0068C31.7175 59.9814 31.5028 59.7288 31.5308 59.4388C31.5401 59.2891 31.6148 59.1582 31.7268 59.0646" fill="#949494"/>
<path d="M50.9645 59.2422C50.8432 59.476 50.9272 59.766 51.1605 59.8876C51.2258 59.9251 51.3099 59.9438 51.3845 59.9438C51.4685 59.9438 51.5525 59.9438 51.6365 59.9438H54.8007C55.0621 59.9438 55.3048 59.7754 55.3795 59.5228L58.1796 51.9737C58.1796 51.9737 58.329 51.5808 58.497 51.5528C58.665 51.5247 58.777 51.5528 58.9077 51.7492L59.1317 52.0485C60.6905 54.2562 61.9319 56.389 63.6587 58.4658C63.7427 58.578 64.1534 59.0457 64.2747 59.1673C65.5068 60.4209 66.3655 60.0093 66.8882 58.8961L67.1402 58.2506L71.4245 46.3703C71.4898 46.2674 71.4525 46.1271 71.3498 46.0616C71.3032 46.0336 71.2471 46.0242 71.1911 46.0336H67.6256C67.4296 46.0055 67.2429 46.1178 67.1776 46.3049L64.592 53.0495C64.4894 53.2553 64.4147 53.302 64.3027 53.3208C64.1907 53.3395 64.0694 53.3208 63.9107 53.0869L63.6307 52.7501L60.2518 48.2132C60.2518 48.2132 60.0931 47.9887 59.8411 47.68C59.3744 47.0064 58.721 46.4639 57.9743 46.1271C57.8063 46.071 57.6196 46.0336 57.4423 46.0336C56.5089 46.0336 55.8835 46.52 55.4355 47.6332C55.1274 48.4003 54.8754 49.1112 54.8754 49.1112L51.0018 59.1112C51.0018 59.1112 51.1605 58.6903 51.0018 59.2422" fill="#949494"/>
</g>
<defs>
<clipPath id="clip0_392_238">
<rect width="72" height="60.0001" fill="white"/>
</clipPath>
</defs>
</svg>
