<svg width="120" height="120" viewBox="0 0 120 120" fill="none" xmlns="http://www.w3.org/2000/svg">
<g clip-path="url(#clip0_392_564)">
<path d="M60 0C26.9139 0 0 26.9139 0 60C0 93.0861 26.9139 120 60 120C93.0861 120 120 93.0861 120 60C120 26.9139 93.0792 0 60 0ZM38.275 93.5395C38.275 93.5395 38.2332 93.6022 38.1844 93.6022H34.5438C34.4949 93.6022 34.467 93.5674 34.4531 93.5395C34.4392 93.5116 34.4392 93.4697 34.474 93.4349C34.8785 93.0443 35.0808 92.4236 35.011 91.7331L34.3276 85.4423C34.3276 85.3865 34.2787 85.3377 34.2229 85.3307C34.1672 85.3237 34.1114 85.3516 34.0835 85.4004L30.6382 92.7932C30.5754 92.9257 30.3941 92.9257 30.3313 92.7932L26.886 85.4004C26.8581 85.3447 26.8093 85.3167 26.7465 85.3307C26.6907 85.3377 26.6488 85.3865 26.6419 85.4423L25.9584 91.7331C25.8956 92.4236 26.0909 93.0443 26.4954 93.4349C26.5303 93.4697 26.5303 93.5116 26.5163 93.5395C26.5024 93.5674 26.4745 93.6022 26.4257 93.6022H22.7851C22.7363 93.6022 22.7084 93.5674 22.6944 93.5395C22.6805 93.5116 22.6874 93.4628 22.7223 93.4279C23.2245 92.9885 23.608 92.298 23.6917 91.6703C23.7057 91.5169 24.431 84.8425 24.431 84.8425C24.4519 84.6612 24.4938 84.2288 24.5008 84.1241C24.5566 83.0292 24.2846 82.7153 23.9986 82.3457C23.9498 82.2829 23.7964 82.0737 23.7685 82.0319C23.4686 81.6204 23.1338 81.1461 23.1059 80.637C23.0989 80.4975 23.1756 80.5184 23.2384 80.5533C23.2384 80.5533 23.5592 80.7137 23.6778 80.7625C24.5147 81.1112 24.7937 81.2228 26.1327 81.3205C26.2653 81.3274 26.9487 81.3553 27.2556 81.3693C27.43 81.3763 27.5695 81.5018 27.6462 81.6622L30.4498 88.0437C30.4708 88.0856 30.5266 88.0856 30.5405 88.0437L33.3442 81.6552C33.4139 81.5018 33.5743 81.3693 33.7417 81.3693H35.9874C36.0921 81.3693 36.1827 81.453 36.1897 81.5576L37.2916 91.6843C37.3823 92.312 37.7589 93.0024 38.2611 93.4418C38.2959 93.4767 38.3029 93.5185 38.289 93.5534L38.275 93.5395ZM50.3755 93.6022H49.9849C49.9849 93.6022 48.1367 93.6022 47.9693 93.6022H47.3207C47.23 93.6022 47.1742 93.4976 47.23 93.4279C47.4462 93.1419 47.5299 92.7165 47.4323 92.3608C47.4323 92.3608 47.4323 92.3469 47.4323 92.3399L46.8604 90.9799H42.6061L42.1527 92.0888L42.09 92.2422C41.9435 92.6119 41.9854 93.1001 42.1876 93.4349C42.2295 93.5116 42.1806 93.6092 42.09 93.6092H40.2906H39.4886C39.3909 93.6092 39.3421 93.4976 39.4049 93.4209C39.6838 93.1071 39.9419 92.7025 40.1023 92.3608L43.3872 84.5914C43.3872 84.5914 43.3872 84.5844 43.3872 84.5775C43.5127 84.166 43.4918 83.629 43.2128 83.2663C43.157 83.1896 43.2059 83.085 43.3035 83.085H45.6748C45.7445 83.085 45.8073 83.1268 45.8352 83.1896L49.7687 92.3608C49.9291 92.7025 50.1871 93.1071 50.4661 93.4209C50.5289 93.4906 50.4801 93.6092 50.3824 93.6092L50.3755 93.6022ZM60.2232 85.7492C60.1534 85.7492 60.0976 85.7492 60.0209 85.6655C59.8466 85.4911 59.177 84.8076 57.6427 84.8076H54.7693V92.2562C54.7762 92.6537 54.9088 93.0931 55.1389 93.3791C55.1947 93.4558 55.1389 93.5604 55.0482 93.5604H52.2027C52.1121 93.5604 52.0563 93.4558 52.1121 93.3791C52.3352 93.0931 52.4677 92.6468 52.4677 92.2562L52.4538 85.0936C52.4538 84.4659 52.0144 83.7824 51.5611 83.3291C51.4913 83.2593 51.5402 83.1408 51.6448 83.1408H59.4839C59.5606 83.1408 59.6513 83.2175 59.6652 83.2803C59.7977 83.7475 60.1465 85.0308 60.2929 85.5399C60.3348 85.6794 60.2929 85.7352 60.2302 85.7561L60.2232 85.7492ZM59.3374 73.7115L44.5101 41.9296C44.3985 41.6994 44.1683 41.5808 43.9172 41.6227C43.6662 41.6645 43.4848 41.8598 43.4569 42.1109L40.4998 69.1712C40.2139 72.1353 41.0578 74.7995 42.8083 76.4733C42.9548 76.6128 42.9548 76.7941 42.906 76.9197C42.8571 77.0452 42.7246 77.1847 42.5154 77.1847H26.8581C26.6488 77.1847 26.5163 77.0452 26.4675 76.9197C26.4187 76.7872 26.4257 76.5919 26.5861 76.4524C28.7411 74.5554 30.3801 71.5843 30.7637 68.8853C30.8404 68.2157 33.9579 39.5304 33.9579 39.5304C34.0416 38.7423 34.2299 36.8732 34.2508 36.4268C34.488 31.7261 33.3093 30.3522 32.0888 28.769C31.8935 28.511 31.224 27.5973 31.0915 27.409C29.8152 25.6306 28.3576 23.615 28.239 21.4111C28.2041 20.8113 28.5459 20.916 28.8039 21.0415C28.8039 21.0415 30.1709 21.718 30.687 21.9342C34.2718 23.4197 35.4853 23.9219 41.2391 24.3403C41.804 24.3822 44.7611 24.4938 46.0793 24.5635C46.8255 24.5984 47.4393 25.1494 47.7461 25.8189L59.7908 53.2558C59.8675 53.4302 60.1186 53.4302 60.1953 53.2558L72.2539 25.784C72.5607 25.1075 73.2582 24.5635 73.9556 24.5635L83.608 24.5775C84.0614 24.5775 84.438 24.9192 84.4868 25.3656L89.2224 68.8992C89.606 71.5913 91.2449 74.5624 93.4 76.4663C93.5674 76.6128 93.5674 76.8011 93.5185 76.9336C93.4697 77.0661 93.3442 77.1987 93.128 77.1987H77.4706C77.2614 77.1987 77.1289 77.0592 77.0801 76.9336C77.0313 76.8081 77.0313 76.6268 77.1777 76.4873C78.9283 74.8134 79.7722 72.1493 79.4862 69.1852L76.5291 42.1248C76.5012 41.8738 76.3199 41.6785 76.0688 41.6366C75.8177 41.5948 75.5876 41.7134 75.476 41.9435L60.6486 73.7254C60.3906 74.2834 59.5955 74.2834 59.3305 73.7254L59.3374 73.7115ZM72.5119 93.4349C72.5677 93.5116 72.5119 93.6162 72.4212 93.6162H70.0081C69.9105 93.6162 69.8617 93.5046 69.9244 93.4279C70.1337 93.1559 70.2592 92.7514 70.2732 92.3817V89.2572H64.61V92.305C64.61 92.7026 64.7425 93.1419 64.9657 93.4279C65.0215 93.5046 64.9657 93.6092 64.875 93.6092H62.0295C61.9389 93.6092 61.8831 93.5046 61.9389 93.4279C62.162 93.1419 62.2945 92.6956 62.2945 92.305V84.438C62.2945 84.0405 62.162 83.6011 61.9389 83.3151C61.8831 83.2384 61.9389 83.1338 62.0295 83.1338H64.875C64.9657 83.1338 65.0215 83.2384 64.9657 83.3151C64.7425 83.6011 64.61 84.0474 64.61 84.438V87.695H70.2732V84.3682C70.2592 83.9986 70.1337 83.5941 69.9244 83.3221C69.8687 83.2454 69.9175 83.1338 70.0081 83.1338H72.4212C72.5119 83.1338 72.5677 83.2384 72.5119 83.3151C72.2887 83.6011 72.1562 84.0474 72.1562 84.438V92.305C72.1562 92.7026 72.2887 93.1419 72.5119 93.4279V93.4349ZM85.2958 93.6022H84.9053C84.9053 93.6022 83.0571 93.6022 82.8897 93.6022H82.2411C82.1504 93.6022 82.0946 93.4976 82.1504 93.4279C82.3666 93.1419 82.4503 92.7165 82.3527 92.3608C82.3527 92.3608 82.3527 92.3469 82.3527 92.3399L81.7808 90.9799H77.5265L77.0731 92.0888L77.0103 92.2422C76.8639 92.6119 76.9057 93.1001 77.108 93.4349C77.1498 93.5116 77.101 93.6092 77.0103 93.6092H75.211H74.4089C74.3113 93.6092 74.2625 93.4976 74.3252 93.4209C74.6042 93.1071 74.8623 92.7025 75.0227 92.3608L78.3076 84.5914C78.3076 84.5914 78.3076 84.5844 78.3076 84.5775C78.4331 84.166 78.4122 83.629 78.1332 83.2663C78.0774 83.1896 78.1262 83.085 78.2239 83.085H80.5951C80.6649 83.085 80.7277 83.1268 80.7556 83.1896L84.6891 92.3608C84.8495 92.7025 85.1075 93.1071 85.3865 93.4209C85.4493 93.4906 85.4004 93.6092 85.3028 93.6092L85.2958 93.6022ZM96.9429 84.2148C96.8732 84.2148 96.8174 84.2148 96.7407 84.1311C96.5663 83.9568 95.8968 83.2733 94.3624 83.2733H91.761V92.2632C91.768 92.6607 91.9005 93.1001 92.1237 93.386C92.1795 93.4627 92.1237 93.5674 92.033 93.5674H89.1875C89.0968 93.5674 89.041 93.4627 89.0968 93.386C89.32 93.1001 89.4525 92.6537 89.4525 92.2632L89.4386 83.2733H86.8999C85.3656 83.2733 84.696 83.9568 84.5217 84.1311C84.438 84.2148 84.3822 84.2148 84.3194 84.2148C84.2567 84.1939 84.2148 84.1381 84.2567 83.9986C84.3961 83.4965 84.7518 82.0249 84.8843 81.5576C84.8983 81.4948 84.989 81.4181 85.0657 81.4181H96.2106C96.2873 81.4181 96.378 81.4948 96.392 81.5576C96.5245 82.0249 96.8732 83.4965 97.0196 83.9986C97.0615 84.1381 97.0197 84.1939 96.9569 84.2148H96.9429ZM46.163 89.3409L46.1978 89.4316H43.2268L44.5868 86.0909C44.6216 86.0002 44.7542 85.9933 44.796 86.0909L46.163 89.3479V89.3409ZM81.0833 89.3409L81.1182 89.4316H78.1472L79.5071 86.0909C79.542 86.0002 79.6745 85.9933 79.7164 86.0909L81.0833 89.3479V89.3409Z" fill="#949494"/>
</g>
<defs>
<clipPath id="clip0_392_564">
<rect width="120" height="120" fill="white"/>
</clipPath>
</defs>
</svg>
