<svg width="109" height="60" viewBox="0 0 109 60" fill="none" xmlns="http://www.w3.org/2000/svg">
<g clip-path="url(#clip0_392_233)">
<path fill-rule="evenodd" clip-rule="evenodd" d="M18.2466 43.4858H10.2024V60H18.7807V53.4641L23.9037 58.5621L29.0267 53.4641V60H37.605V43.4858H29.5608L23.9037 49.1068L18.2466 43.4858ZM57.007 53.7691H52.0366L54.5218 49.9455L57.007 53.7691ZM59.078 43.4858H49.9656L39.1637 60H48.0145L49.2135 58.1481H59.841L61.04 60H69.8908L59.078 43.4858ZM54.5 0C24.4051 0 0 24.281 0 54.2266C0 56.1765 0.0981 58.1046 0.3052 60H6.0168C5.7879 58.1046 5.6789 56.1765 5.6789 54.2266C5.6789 27.3965 27.5443 5.6427 54.5109 5.6427C81.4775 5.6427 103.343 27.3965 103.343 54.2266C103.343 56.1765 103.223 58.1046 103.005 60H108.717C108.924 58.1046 109.022 56.1765 109.022 54.2266C109 24.281 84.5949 0 54.5 0ZM79.8861 43.4858H71.3841V60H79.9515V52.549L90.0667 60H98.645V43.4858H90.0667V51.0022L79.8861 43.4858Z" fill="#949494"/>
</g>
<defs>
<clipPath id="clip0_392_233">
<rect width="109" height="60" fill="white"/>
</clipPath>
</defs>
</svg>
