<svg width="530" height="60" viewBox="0 0 530 60" fill="none" xmlns="http://www.w3.org/2000/svg">
<path d="M39.4383 41.4666L55.1659 1.19507H79.1737V4.8269C75.8666 4.88319 71.1272 4.2676 69.7255 8.11792L69.6493 50.1365C70.2722 52.5698 71.3894 53.6558 73.8016 54.2517C74.9048 54.5231 78.919 54.6262 79.1962 54.8181C79.7926 55.2353 79.6303 58.3044 79.0106 58.3044H50.5292C49.9099 58.3032 49.7476 55.2325 50.3436 54.8181C51.5929 53.9507 57.4952 55.7349 59.162 52.3845C59.3643 51.9801 59.9667 50.1896 59.9667 49.8884V4.8269L58.7147 5.39331L37.9774 59.6521C37.4273 60.0825 36.4693 60.1584 35.9491 59.6287L16.2821 5.02222L15.2587 4.8269V49.2234C15.2593 49.4529 15.8944 51.0067 16.0702 51.3845C17.5017 54.4734 21.1468 54.6919 24.202 54.6687C23.9336 55.3242 24.7319 58.3005 24.036 58.3005H0.522331C-0.23651 58.3005 0.068339 55.3275 0.0252607 54.6687C5.55914 54.8872 9.38987 53.1231 9.95983 47.24L9.94323 7.323C9.94315 5.71073 7.01701 4.8269 5.82409 4.8269H0.0281904V1.19507H25.1962L39.4383 41.4666ZM279.199 0.204834C281.704 -0.0732594 287.613 -0.0633202 290.128 0.204834C307.333 2.04225 319.925 19.7578 315.793 36.5164C307.943 68.3552 257.789 66.528 253.084 33.3318C250.87 17.722 263.572 1.94301 279.199 0.204834ZM187.211 30.488C192.185 17.583 214.621 11.3721 223.035 22.6814C226.365 27.1574 225.749 35.0927 218.744 34.5466C211.948 34.0169 212.408 24.3899 218.923 23.9695H218.926C217.713 22.1288 214.217 21.2513 212.097 21.0427C200.571 19.9038 194.656 28.7269 195.398 39.3376C196.492 55.0133 215.629 58.2115 224.722 47.0847C225.199 47.9322 227.22 48.6937 227.217 49.5544C227.212 50.6211 221.388 55.3415 220.139 56.0466C202.556 65.9717 179.361 50.8486 187.211 30.488ZM88.5448 25.5486C91.0764 17.2521 105.656 16.1925 112.708 17.4539C130.294 20.6023 124.074 37.8278 125.197 50.5574C125.449 53.4045 126.54 54.6029 129.542 53.8679C130.473 53.6395 131.477 52.362 132.127 52.7361H132.12C132.241 52.8083 133.747 54.7721 133.783 54.9011C134.097 56.1095 130.629 57.8834 129.635 58.2576C123.425 60.5949 116.838 57.7381 116.596 50.7097L114.494 53.5632C109.431 58.5226 100.808 60.3764 94.0946 58.1218C84.8298 55.0096 83.2862 44.1115 92.1337 39.364C99.0494 35.6529 108.517 35.4278 116.075 33.5837C117.672 21.9599 108.632 19.3412 98.9725 21.7546C98.1371 21.9633 95.4243 22.5395 96.2792 23.3406C97.949 24.9094 99.1413 25.2308 99.0751 28.0974C98.8895 35.8841 85.7714 34.6396 88.5448 25.5486ZM424.844 17.1394C457.464 13.9281 457.915 61.6512 425.083 58.9568C399.269 56.838 398.487 19.7352 424.844 17.1394ZM505.556 17.0437C516.597 16.2524 528.503 23.6087 529.891 35.196C530.044 36.4542 530.027 39.2018 529.891 40.4763C528.162 56.5892 507.7 64.005 494.687 55.2683C477.489 43.7207 485.372 18.4909 505.556 17.0437ZM155.011 30.574L156.939 26.7205C160.336 20.2779 167.901 14.9146 175.443 17.6326C182.369 20.1288 182.316 31.1399 175 31.5476C170.921 31.7727 167.773 26.7861 170.062 23.2966L172.229 21.0056C162.765 20.5818 157.397 32.6666 155.826 40.4666C155.316 43.0061 154.077 52.0431 155.819 53.699C156.028 53.8975 157.663 54.6716 157.824 54.6726H163.289V58.3044H139.281C138.661 58.3044 138.499 55.2319 139.096 54.8181C140.193 54.057 145.339 55.7745 146.064 52.5203L146.091 24.4529C145.584 20.636 138.891 22.0554 138.128 21.3308C137.989 21.1984 138.22 18.2945 138.124 17.7019L155.011 16.7117V30.574ZM382.362 1.1814C393.241 1.52909 406.154 6.46609 403.298 19.7683C399.96 35.3081 374.197 31.882 362.645 32.2263H362.652V48.8953C362.652 49.0475 362.99 51.1847 363.057 51.4607C363.348 52.6689 364.07 53.4806 365.203 53.9441C365.538 54.0798 367.599 54.6726 367.785 54.6726H372.752C373.481 54.6726 373.481 58.3044 372.752 58.3044H343.608C342.952 58.3044 343.058 55.0627 343.423 54.821C347.154 54.4569 352.157 54.9136 352.966 50.1365C353.198 48.7625 353.321 46.1242 353.39 44.6179C353.828 35.166 353.848 23.3338 353.39 13.8884C353.321 12.435 353.188 10.0573 352.963 8.69995C352.234 4.29046 346.786 4.89974 343.435 4.8269V1.19507L382.362 1.1814ZM471.978 50.1736C472.522 55.139 475.537 54.0665 479.407 54.99C479.023 55.5792 479.778 58.2998 479.057 58.3005H455.377V54.6687C460.4 54.4701 462.928 54.9137 463.336 49.2361C464.254 36.5265 462.61 22.751 463.336 9.92554C463.283 9.13438 463.181 7.74375 462.902 7.05835C461.809 4.37007 455.735 5.29339 455.184 4.51538C454.979 4.22382 454.923 1.31056 455.042 1.198C455.439 0.824078 464.115 0.731612 465.5 0.549561L466.299 0.204834H471.938L471.978 50.1736ZM286.317 3.69409C256.66 2.33009 257.511 53.5635 282.35 55.656C312.913 58.2317 312.479 4.89603 286.317 3.69409ZM509.187 55.3279C524.715 53.7752 524.587 18.1688 505.636 20.7576C490.429 22.8367 490.628 57.1846 509.187 55.3279ZM429.049 55.3279C444.653 53.8315 444.643 18.1488 425.493 20.7576C410.462 22.804 410.542 57.1054 429.049 55.3279ZM116.267 37.1755C110.581 38.8772 95.5039 39.4995 95.7684 47.8718C95.9904 54.8772 105.776 54.4702 110.286 51.8416C112.549 50.5237 116.267 45.8722 116.267 43.28V37.1755ZM386.574 6.56519C382.329 4.58209 371.877 4.2805 367.208 4.91284C365.366 5.16127 362.653 6.50862 362.652 8.62378V28.5945H379.376C380.88 28.5945 385.344 27.1677 386.789 26.4128C394.53 22.3706 394.536 10.2833 386.574 6.56519ZM331.191 0.204834C337.54 4.01537 335.185 11.3023 331.516 16.2087C331.01 16.8872 326.429 21.5627 326.013 21.6384C325.598 21.7113 323.52 19.6682 323.597 19.2312C325.896 16.8708 328.494 14.4873 329.196 11.114C323.566 9.72663 321.032 3.35653 326.884 0.204834H331.191ZM155.015 16.7117H155.011V16.7087L155.015 16.7117Z" fill="#949494"/>
</svg>
