<svg width="221" height="40" viewBox="0 0 221 40" fill="none" xmlns="http://www.w3.org/2000/svg">
<g clip-path="url(#clip0_392_173)">
<mask id="mask0_392_173" style="mask-type:luminance" maskUnits="userSpaceOnUse" x="0" y="0" width="221" height="40">
<path d="M221 0H0V40H221V0Z" fill="white"/>
</mask>
<g mask="url(#mask0_392_173)">
<path d="M22.0275 0.509094V20.7273C22.0275 21.6727 21.3005 22.3273 20.4281 22.3273H18.0291C17.8837 22.3273 17.811 22.4727 17.811 22.5455V39.4909C18.3926 39.4909 18.9742 39.6364 19.6285 39.6364C30.4604 39.6364 39.2568 30.8364 39.2568 20C39.2568 10.0364 31.7689 1.67273 22.0275 0.509094ZM21.5913 30.7636C20.21 30.7636 19.1923 29.6 19.1923 28.3636C19.1923 26.9818 20.3554 25.9636 21.5913 25.9636C22.9725 25.9636 23.9903 27.1273 23.9903 28.3636C24.1357 29.6727 22.9725 30.7636 21.5913 30.7636ZM27.3344 30.7636C25.9531 30.7636 24.9354 29.6 24.9354 28.3636C24.9354 26.9818 26.0985 25.9636 27.3344 25.9636C28.7156 25.9636 29.7334 27.1273 29.7334 28.3636C29.7334 29.6 28.7883 30.7636 27.3344 30.7636ZM33.1502 30.7636C31.7689 30.7636 30.7512 29.6 30.7512 28.3636C30.7512 26.9818 31.9143 25.9636 33.1502 25.9636C34.5314 25.9636 35.5492 27.1273 35.5492 28.3636C35.5492 29.6 34.5314 30.7636 33.1502 30.7636Z" fill="#949494"/>
<path d="M19.6283 0.43634C8.79638 0.43634 0 9.23634 0 20.0727C0 29.6 6.61546 37.3818 15.4845 39.2V21.5272C15.4845 20.7272 16.2115 20.0727 16.9385 19.9272H19.3375C19.4829 19.9272 19.5556 19.7818 19.5556 19.7091L19.6283 0.43634ZM15.848 16.5818C14.4668 16.5818 13.449 15.4182 13.449 14.1818C13.449 12.8 14.6122 11.7818 15.848 11.7818C17.2293 11.7818 18.247 12.9454 18.247 14.1818C18.247 15.4182 17.1566 16.5818 15.848 16.5818Z" fill="#949494"/>
<path d="M216.129 11.1272V18.5454H206.243V11.1272H201.226V30.7636H206.243V22.8363H216.129V30.7636H221V11.1272H216.129ZM134.418 13.3818C133.618 11.6363 132.019 10.6909 130.419 10.6909C128.82 10.6909 127.148 11.6363 126.421 13.3818L118.497 30.8363H123.731L125.476 26.6909H135.653L137.398 30.8363H142.632L134.418 13.3818ZM126.857 22.7636L129.838 15.5636C129.983 15.3454 130.056 15.3454 130.201 15.3454C130.347 15.3454 130.565 15.3454 130.565 15.5636L133.545 22.7636H126.857ZM75.9689 7.63633C73.6426 7.63633 72.1886 8.87269 71.0982 11.3454L64.7735 26.1091L58.3761 11.2727C57.3584 8.87269 55.8317 7.5636 53.5054 7.5636C51.3245 7.5636 49.1436 9.01814 49.1436 12.4363V30.6909H54.0143V13.0909L60.4843 27.7091C61.284 29.8181 62.8107 31.0545 64.7735 31.0545C66.8817 31.0545 68.263 29.8181 69.0626 27.7091L75.5327 13.0909V30.9091H80.4034V12.6545C80.3307 9.23633 78.1498 7.63633 75.9689 7.63633ZM88.9817 26.6181C88.7636 26.6181 88.4728 26.4 88.4728 26.1091V22.6181H100.686V18.6181H88.4728V15.6363C88.4728 15.4181 88.6909 15.1272 88.9817 15.1272H101.122V10.9818H86.5827C84.838 10.9818 83.6748 12.3636 83.6748 13.8909V27.6363C83.6748 29.0909 84.9107 30.5454 86.5827 30.5454H101.122V26.4H88.9817V26.6181ZM109.337 30.7636V15.7818C109.337 15.5636 109.555 15.2727 109.846 15.2727H121.986V11.1272H107.447C105.702 11.1272 104.539 12.5091 104.539 14.0363V30.6909L109.337 30.7636ZM198.028 21.0181C198.028 14.1818 195.047 10.9818 187.632 10.9818H185.887C178.472 10.9818 175.492 14.2545 175.492 21.0181C175.492 27.7818 178.472 31.0545 185.887 31.0545H187.487C195.047 30.9091 198.028 27.7091 198.028 21.0181ZM187.487 26.9091H185.887C181.889 26.9091 180.217 25.0909 180.217 21.0181C180.217 16.9454 181.598 15.1272 185.887 15.1272H187.487C191.63 15.1272 193.157 17.0909 193.157 21.0181C193.157 24.9454 191.63 26.9091 187.487 26.9091ZM161.897 8.07269H152.156C144.886 8.07269 141.978 11.7818 141.978 18.1091C141.978 19.1272 142.123 20.0727 142.196 20.8727C142.996 25.3818 145.686 28.1454 152.447 28.1454H154.627V30.6909H159.498V28.1454H161.606C168.44 28.1454 171.13 25.3818 171.857 20.8727C172.002 20.0727 172.075 19.1272 172.075 18.1091C172.002 11.7818 169.022 8.07269 161.897 8.07269ZM154.482 24.0727H152.301C148.957 24.0727 147.794 22.8363 147.067 20.8C146.849 20.0727 146.849 19.0545 146.849 18.0363C146.849 13.8909 148.812 12.1454 151.574 12.1454H154.555V24.0727H154.482ZM166.986 21.0181C166.259 22.9818 165.023 24.2909 161.752 24.2909H159.571V12.2909H162.551C165.314 12.2909 167.277 14.0363 167.277 18.1818C167.204 19.2727 167.204 20.1454 166.986 21.0181Z" fill="#949494"/>
</g>
</g>
<defs>
<clipPath id="clip0_392_173">
<rect width="221" height="40" fill="white"/>
</clipPath>
</defs>
</svg>
