<svg width="208" height="30" viewBox="0 0 208 30" fill="none" xmlns="http://www.w3.org/2000/svg">
<g clip-path="url(#clip0_392_164)">
<path fill-rule="evenodd" clip-rule="evenodd" d="M4.70477 0.26858C4.40005 0.491913 4.00693 2.85691 2.37704 14.2709C1.29856 21.8244 0.416016 28.1723 0.416016 28.3773C0.416016 28.7015 0.612784 28.7496 1.92402 28.7469C2.75352 28.745 3.5487 28.6694 3.69139 28.5788C3.85675 28.4736 4.06517 27.2094 4.2663 25.0923C4.82541 19.2057 5.92947 11.0917 6.2111 10.8C6.28432 10.7244 8.16922 14.4588 10.4 19.0986C12.6308 23.7384 14.6407 27.6675 14.8664 27.8298C15.4763 28.2688 16.386 28.1915 16.9094 27.6563C17.1617 27.3984 19.2361 23.5555 21.5191 19.1161C23.8021 14.6767 25.7352 11.1142 25.8149 11.1994C26.1065 11.5113 27.07 19.1105 27.5432 24.8302C27.7013 26.7421 27.8924 28.4061 27.9677 28.5282C28.1736 28.8621 33.9987 28.8265 34.2741 28.4896C34.4226 28.3082 33.9238 24.0302 32.6288 14.375C31.1303 3.204 30.7035 0.470455 30.4254 0.260455C30.0057 -0.0564201 28.4852 -0.0810035 27.8285 0.21858C27.4783 0.37858 26.0639 2.93316 22.5668 9.72212C19.9362 14.8288 17.6904 19.1377 17.576 19.2977C17.4208 19.5146 16.2147 17.1952 12.8234 10.1588C10.3241 4.97254 8.09059 0.565038 7.86054 0.364622C7.35365 -0.0768368 5.26346 -0.140587 4.70477 0.26858ZM99.7739 1.51045C99.4627 1.73941 92.3541 18.3402 92.3526 18.8411C92.3522 18.9484 92.6095 18.7944 92.924 18.4988C93.6044 17.8596 95.6615 16.5336 96.5603 16.1552C97.1464 15.9084 97.2906 15.6236 98.3087 12.703C98.9188 10.9523 99.4546 9.48337 99.4991 9.43858C99.5438 9.394 99.98 10.463 100.469 11.8142C100.957 13.1655 101.413 14.3332 101.482 14.4094C101.598 14.5365 106.832 13.4836 107.019 13.2955C107.208 13.1069 102.516 1.9567 102.105 1.61462C101.594 1.19066 100.288 1.13233 99.7739 1.51045ZM147.68 1.3917C142.785 1.77004 138.614 4.18025 136.196 8.02754C134.744 10.3384 133.988 14.1277 134.369 17.1934C134.991 22.2073 137.701 25.9709 142.168 28.024C144.788 29.2282 147.982 29.6963 151.286 29.3607C154.974 28.9861 157.671 27.8282 160.052 25.5973C161.77 23.988 162.788 22.4336 163.576 20.2175C164.17 18.5461 164.209 18.2534 164.209 15.4167C164.209 12.58 164.17 12.2873 163.576 10.6159C161.625 5.12712 156.815 1.74629 150.488 1.41691C149.458 1.36337 148.195 1.35212 147.68 1.3917ZM39.5439 2.36712C39.3734 2.57275 39.3237 6.22129 39.3624 15.6484L39.416 28.6459L40.7166 28.708C41.4322 28.7421 42.1458 28.6952 42.3026 28.6038C42.4597 28.5123 44.4885 26 46.8117 23.0209C50.5923 18.1723 53.6825 14.4094 56.1357 11.6667L56.9743 10.7292L56.9831 19.4896C56.9897 26.0152 57.0557 28.3138 57.2416 28.5C57.4086 28.6673 58.3355 28.75 60.0423 28.75C62.3516 28.75 62.6138 28.7119 62.8087 28.3471C63.0413 27.9117 63.1268 3.01087 62.8978 2.41295C62.8006 2.15941 62.461 2.08337 61.4257 2.08337C59.7776 2.08337 60.0972 1.77962 55.6078 7.61295C52.1489 12.1075 48.8621 16.1255 46.622 18.598L45.344 20.0084V11.4488C45.344 5.94691 45.2671 2.74545 45.1287 2.48629C44.9336 2.12129 44.6713 2.08337 42.3461 2.08337C40.434 2.08337 39.7191 2.15566 39.5439 2.36712ZM69.732 2.31733C69.362 2.69587 69.352 28.1298 69.7216 28.5C69.8886 28.6673 70.8155 28.75 72.5223 28.75C74.8316 28.75 75.0938 28.7119 75.2887 28.3471C75.4162 28.1084 75.5042 26.2621 75.5044 23.8159L75.5049 19.6875L77.5324 19.6248C85.2041 19.388 89.0906 16.0992 88.7752 10.1107C88.6685 8.08337 88.0287 6.53379 86.7027 5.09045C85.5492 3.83525 84.6596 3.27816 82.8701 2.69087C81.5502 2.25775 80.9621 2.21212 75.712 2.13525C71.2562 2.06983 69.9346 2.11004 69.732 2.31733ZM113.24 2.36358C113.18 2.52004 113.159 3.24754 113.193 3.98025L113.256 5.31254L114.088 5.28712C114.546 5.27316 116.067 5.18858 117.468 5.099L120.016 4.9365V16.4402C120.016 23.9717 120.09 28.0832 120.231 28.3471C120.426 28.7119 120.688 28.75 122.998 28.75C124.705 28.75 125.631 28.6673 125.798 28.5C125.987 28.3115 126.048 25.3821 126.048 16.5944V4.93879L128.596 5.09545C129.997 5.1817 131.518 5.26566 131.976 5.28233L132.808 5.31254V3.75004V2.18754L123.078 2.13337C115.012 2.08858 113.33 2.12795 113.24 2.36358ZM169.199 2.34379C169.145 2.48712 169.124 8.46358 169.154 15.625L169.208 28.6459L171.779 28.7046C173.497 28.7438 174.445 28.6834 174.639 28.5227C174.869 28.3315 174.928 27.3896 174.928 23.9107C174.928 20.0519 174.966 19.5534 175.25 19.6623C175.842 19.8902 180.45 19.3905 181.909 18.94C183.873 18.334 184.796 17.834 185.955 16.7484C188.377 14.4786 189.052 10.113 187.478 6.89066C186.293 4.46587 184.097 2.9367 181.005 2.38441C178.833 1.9967 169.344 1.964 169.199 2.34379ZM193.033 2.48358C192.734 3.04254 192.733 27.7884 193.031 28.3471C193.226 28.7119 193.488 28.75 195.798 28.75C197.505 28.75 198.431 28.6673 198.598 28.5C198.787 28.3115 198.848 25.3821 198.848 16.5942V4.93837L202.228 5.09212C204.087 5.1765 206.076 5.26066 206.648 5.2792L207.688 5.31254V3.75004V2.18754L200.469 2.13275C193.498 2.07983 193.242 2.09191 193.033 2.48358ZM147.295 3.96087C144.674 4.51504 142.38 7.0015 141.338 10.4167C140.881 11.915 140.686 16.6823 140.999 18.6932C141.86 24.2075 145.346 27.4088 150.06 27.0136C153.612 26.7159 156.231 24.1977 157.373 19.9834C157.883 18.0986 157.883 12.7348 157.373 10.85C156.183 6.45921 153.54 4.01566 149.791 3.84275C148.916 3.80233 147.793 3.85545 147.295 3.96087ZM75.504 11.0452V17.5605L76.9315 17.4407C79.4202 17.2317 81.1901 16.0786 82.1505 14.0407C82.7532 12.7613 82.9731 9.85775 82.5748 8.43295C81.9235 6.10337 80.0563 4.79379 77.1449 4.62504L75.504 4.52983V11.0452ZM174.928 11.0459V17.5605L176.377 17.4388C179.808 17.1507 181.731 15.3015 182.214 11.8248C182.655 8.64337 181.72 6.444 179.425 5.26671C178.61 4.84879 177.957 4.69837 176.644 4.62587L174.928 4.53108V11.0459ZM111.479 12.6155C110.738 13.509 108.146 14.4192 103.532 15.4055C97.9252 16.6042 95.4371 17.7348 92.9719 20.2042C91.2952 21.8834 90.526 23.1623 89.0533 26.7188L88.2122 28.75H90.2423C91.5433 28.75 92.3967 28.6565 92.6183 28.4896C92.8084 28.3465 93.3009 27.2923 93.7128 26.1471C94.7062 23.384 95.3399 22.264 96.5545 21.1263C97.842 19.92 99.2824 19.2644 102.081 18.6107C103.308 18.324 105.014 17.8725 105.872 17.6073C106.73 17.3421 107.464 17.1559 107.504 17.1934C107.543 17.2309 107.075 17.5915 106.464 17.9948C105.809 18.4269 104.162 19.1205 102.457 19.6825C100.865 20.2075 99.1195 20.8784 98.5783 21.1734C97.5861 21.7142 95.93 23.2367 96.1233 23.4302C96.1807 23.4875 96.5401 23.4448 96.9218 23.335C97.3037 23.2255 98.608 23.0292 99.82 22.899C102.518 22.6094 104.645 22.0827 106.101 21.3436C108.431 20.1607 110.474 17.379 111.493 13.9994C111.965 12.433 111.961 12.0336 111.479 12.6155ZM108.666 21.0063C107.691 21.9073 106.57 22.5875 105.218 23.0982L104.669 23.3059L105.531 25.6838C106.005 26.9915 106.521 28.2163 106.678 28.4057C106.919 28.6967 107.427 28.75 109.96 28.75C112.284 28.75 112.981 28.6869 113.065 28.469C113.162 28.2157 110.18 20.5082 109.855 20.173C109.781 20.0963 109.246 20.4713 108.666 21.0063Z" fill="#949494"/>
</g>
<defs>
<clipPath id="clip0_392_164">
<rect width="208" height="30" fill="white"/>
</clipPath>
</defs>
</svg>
