<svg width="243" height="60" viewBox="0 0 243 60" fill="none" xmlns="http://www.w3.org/2000/svg">
<g clip-path="url(#clip0_392_207)">
<path d="M48.2775 0.707397L32.58 41.7022L16.9881 0.707397H3.44002L-0.000244141 59.299H3.44002L6.77271 4.56907L26.6613 59.1958C27.4057 59.284 29.4647 59.5958 29.8562 58.9421L50.3171 5.21627L53.114 59.299H64.2954L60.8573 0.707397H48.2775Z" fill="#949494"/>
<path d="M159.089 0.126816C128.118 2.6511 124.045 53.7946 156.081 59.4452C179.328 63.5456 193.586 42.1042 188.702 20.8779C185.466 6.81594 173.306 -1.02997 159.089 0.126816ZM178.27 33.0048C177.684 43.1299 171.871 59.6989 158.738 56.5812C146.982 53.7903 144.422 35.4237 145.373 25.4986C146.201 16.8529 150.7 3.82508 161.025 3.13488C175.316 2.17806 178.885 22.3981 178.272 33.0069L178.27 33.0048Z" fill="#949494"/>
<path d="M96.0818 0.12903C67.3699 2.54795 61.5372 47.9248 87.8996 57.9574C104.451 64.2552 121.143 55.4804 125.57 38.5716C130.988 17.8721 118.683 -1.77601 96.0818 0.12903ZM115.263 34.7228C114.346 44.0394 109.008 58.1853 97.3663 56.878C84.9779 55.4869 81.8388 37.3654 82.3638 27.4295C82.8221 18.758 87.024 4.30248 97.3663 3.12849C112.883 1.36752 116.362 23.5356 115.263 34.725V34.7228Z" fill="#949494"/>
<path d="M239.557 0.707397V42.773L206.549 0.707397H198.27V59.2991H201.71V12.5117L238.374 59.2991H242.675C242.699 59.2991 242.998 59.0002 242.998 58.9765V0.707397H239.557Z" fill="#949494"/>
</g>
<defs>
<clipPath id="clip0_392_207">
<rect width="243" height="60" fill="white"/>
</clipPath>
</defs>
</svg>
