<svg width="126" height="120" viewBox="0 0 126 120" fill="none" xmlns="http://www.w3.org/2000/svg">
<path d="M24.0191 60.0252L32.9066 61.2916C35.9878 66.0776 40.0526 70.1868 44.9119 73.1973C61.0893 83.2209 82.4566 78.393 92.8716 62.7066C94.6364 60.0483 95.7211 57.1897 97.1114 54.3415C100.054 52.2021 102.959 50.0021 105.999 48.0002C104.612 62.7077 94.9415 75.9307 81.4897 82.072C61.6788 91.1163 38.2399 84.0772 26.8603 65.7519C26.5002 65.1722 23.7469 60.2819 24.0186 60.0257L24.0191 60.0252Z" fill="#949494"/>
<path d="M109.999 42.0126C107.638 44.4576 105.088 46.8564 102.442 48.9552C101.704 49.5412 98.7841 51.8558 98.1017 51.9718C97.4958 52.0746 96.9793 51.8666 96.4387 51.8546C88.0353 51.6695 79.666 50.8713 71.2598 50.4169L76.6186 43.9341C72.6313 43.8181 68.6078 43.7069 64.6127 43.8079C59.1869 43.9449 53.7432 44.4678 48.3225 44.6583C45.4141 44.7605 41.8111 44.6866 39.9995 41.8323C43.2033 41.2132 46.5081 40.9205 49.77 40.6915C66.5142 39.5147 82.8457 39.9504 99.5587 41.1717C103.038 41.426 106.517 41.7926 109.998 42.0126H109.999Z" fill="#949494"/>
<path d="M93.9989 53.4769C90.1489 56.3266 85.9873 58.7592 81.768 60.9308C77.3801 63.1886 68.7136 67.4321 63.9916 65.5171C62.2177 64.7975 61.6824 63.5113 62.1718 61.5428C62.6654 59.5565 66.1087 55.4632 67.5374 53.8755C68.1698 53.1726 68.8583 52.5024 69.646 52.0002C77.7627 52.5001 85.8896 52.8711 93.9989 53.4769Z" fill="#949494"/>
<path d="M21.9998 47.5932C22.0117 47.0398 21.9736 45.5849 22.2966 45.2004C23.5053 44.4376 24.7252 43.6878 25.9669 43.0061C26.4911 42.7182 27.164 42.2963 27.681 42.0713C27.7688 42.0329 27.765 41.9243 27.8682 42.0874L27.9997 47.9632C25.9969 48.1087 23.9919 47.7917 22.0002 47.5937L21.9998 47.5932Z" fill="#949494"/>
<path d="M125.997 22.3345V23.8051C122.927 27.4976 120.039 31.3729 116.772 34.8916C115.891 35.8398 113.484 38.5671 112.34 38.7262C110.17 39.0285 107.189 38.493 104.945 38.3979C99.7553 38.1782 94.5522 38.061 89.37 37.9393C86.8843 37.881 84.3913 37.9223 81.9073 37.8301L86.6582 30.14C71.4187 28.2873 55.7718 30.4632 41.1574 34.9731C33.2397 37.4163 24.8969 40.8297 17.5922 44.7848C17.2749 44.9563 13.3393 47.2229 13.5062 47.4442C15.1755 47.999 16.9095 48.3641 18.6574 48.5634C20.6683 48.7926 22.7058 48.7592 24.7206 48.9177C26.1964 49.0338 27.6248 48.9907 28.7026 50.158C31.7461 53.5057 35.0605 56.5982 38.0371 60.0003C33.0258 59.7353 28.0393 58.8687 23.1165 57.9115C16.1467 56.5563 8.63254 54.8088 2.12713 51.9105C1.76784 51.7503 0.315192 51.1639 0.133888 51.0099C-0.0728437 50.835 -0.0125931 49.8999 0.128913 49.6457C0.2566 49.4164 1.84799 48.0737 2.18186 47.7878C10.9856 40.2557 23.6593 33.9134 34.3634 29.716C56.613 20.9906 79.7913 16.4309 103.731 18.4903C111.243 19.1367 118.691 20.5196 125.999 22.3356L125.997 22.3345Z" fill="#949494"/>
<path d="M60.3875 0C60.503 0.184618 60.8088 0.110994 60.9963 0.113225C63.0015 0.138324 65.0477 0.0295612 67.0446 0.111552C77.1658 0.524294 88.8416 6.60945 95.5042 14.1526C96.4005 15.1671 97.2474 16.2609 97.9989 17.3859H89.5115C87.3837 17.3859 85.3347 15.04 83.6109 13.8402C68.2317 3.13795 46.8981 6.88386 35.7112 21.742C34.0646 23.929 33.1805 25.9319 31.8929 28.2717C30.859 30.1508 30.5221 30.2852 28.6202 31.2256C26.7693 32.1409 24.3457 33.1934 22.4116 33.9051C22.2728 33.9564 22.1579 34.0244 21.9998 33.9915C25.0194 18.2159 38.1476 4.8235 53.7099 1.26054C55.8477 0.771381 58.0538 0.541026 60.1661 0H60.3881H60.3875Z" fill="#949494"/>
<path d="M111.352 106.69C111.399 106.747 111.629 106.72 111.564 106.518C112.37 102.3 113.521 98.1456 114.19 93.9087C114.091 93.1134 113.426 93.3305 113.352 93.2479C113.315 93.2061 113.421 92.1145 113.457 92.0721C113.648 91.849 118.305 92.232 118.974 92.0815C120.024 92.3098 120.067 93.1978 119.957 94.2215L114.709 119.881C113.252 119.753 111.46 120.098 110.043 119.883C109.568 119.81 109.225 119.527 108.929 119.126L104.4 106.571C104.126 106.538 104.232 106.571 104.187 106.743C103.285 110.177 102.764 113.909 101.885 117.37C101.727 119.073 102.462 118.405 102.716 118.715C102.749 118.754 102.591 119.738 102.565 119.783C102.49 119.906 102.36 119.884 102.248 119.899C101.216 120.043 98.2357 120.027 97.1882 119.894C96.5456 119.812 96.1464 119.457 95.9989 118.744C97.3772 110.7 99.2301 102.723 100.81 94.7117C100.835 94.4592 100.872 93.6497 100.773 93.4816C100.652 93.278 100.115 93.327 100.078 93.1789C100.004 92.8845 100.158 92.3936 100.2 92.0845C101.787 92.2249 103.744 91.8467 105.286 92.0821C106.172 92.2172 106.729 92.9931 107.085 93.8415C108.65 97.5739 109.861 102.233 111.25 106.156C111.303 106.306 111.334 106.671 111.351 106.691L111.352 106.69Z" fill="#949494"/>
<path d="M84.3251 92.093C89.2044 91.7013 94.8824 92.3382 95.8672 98.2547C96.6109 102.723 94.0977 113.58 91.0198 116.958C88.4972 119.727 83.8613 120.158 80.3628 119.958C71.5054 119.454 71.2519 113.362 72.608 105.867C73.9193 98.6176 76.2871 92.7379 84.3251 92.0924V92.093ZM84.9975 97.6253C82.0408 97.9547 81.1132 100.545 80.3678 103.125C79.7599 105.23 78.5187 110.625 78.9943 112.605C79.2624 113.72 80.0829 114.196 81.153 114.305C82.7003 114.462 84.4176 114.389 85.5259 113.155C87.4153 111.05 89.1702 102.559 88.8034 99.7541C88.5325 97.6848 86.7171 97.4344 84.9975 97.6259V97.6253Z" fill="#949494"/>
<path d="M22.1207 108.952L23.9645 114.667C24.2937 115.099 25.2109 114.981 25.7013 114.998C25.7329 115.154 25.666 115.269 25.6191 115.406C25.4042 116.029 23.9866 118.735 23.5931 119.228C23.2538 119.652 22.9293 119.885 22.3851 119.946C21.6397 120.029 19.375 120.1 18.9135 119.501C17.7393 116.169 16.7599 112.74 15.6331 109.384L14.5495 109.402C14.1365 111.959 13.3078 114.538 12.9027 117.083C12.8358 117.503 12.6045 118.37 12.9617 118.678C13.4659 119.112 13.7735 118.386 13.4848 119.944L7.11423 119.945C5.70293 119.729 5.96264 118.51 6.14702 117.396C7.31757 110.313 9.60441 103.123 10.8445 96.0164C10.9093 94.9 10.1481 95.24 10.0116 95.097C9.91997 95.0013 10.177 94.2161 10.1165 94.0004H22.6991C27.2132 94.4758 28.5956 97.9415 27.7769 102.267C27.1764 105.441 25.4047 108.43 22.1207 108.952ZM15.6969 104.663H18.5932C18.7686 104.663 19.553 104.428 19.7358 104.317C20.5366 103.833 20.9917 102.556 21.1877 101.655C21.9426 98.1781 19.3218 98.6838 16.9485 98.7905C16.5508 100.75 15.9582 102.677 15.6969 104.663Z" fill="#949494"/>
<path d="M49.9643 118.851C50.0079 118.895 50.0796 120.018 49.6899 119.945C47.6957 119.819 45.4967 120.114 43.5289 119.949C42.7242 119.882 42.0919 119.609 41.9357 118.765C41.7341 117.678 41.668 116.09 41.5745 114.943C41.551 114.655 41.6647 113.861 41.4687 113.727C39.2332 113.66 36.9395 113.621 34.7332 113.747L32.6416 118.047C32.4282 119.093 33.2789 118.739 33.4015 118.847C33.4424 118.882 33.2509 119.851 33.1848 119.898C32.8426 120.141 28.1135 119.819 27.3094 119.936C26.4145 119.734 25.9374 119.426 26.0063 118.457C29.5773 110.986 33.6692 103.689 37.4861 96.3101C38.0886 94.8318 36.725 95.2813 36.5346 95.1002C36.4635 95.0326 36.7362 94.2089 36.6466 94.0004L44.7536 94.0109C46.6323 94.3437 46.6586 95.8347 46.8339 97.3549C47.6252 104.22 47.9909 111.146 48.744 118.016C48.9188 118.939 49.8556 118.742 49.9643 118.851V118.851ZM41.1254 108.952L40.6214 102.025L37.2072 108.952H41.1254Z" fill="#949494"/>
<path d="M59.6236 109.319L59.8711 109.047L67.1613 94.0833C67.3861 93.1424 66.2868 93.3404 66.19 93.2564C66.1458 93.218 66.4341 92.2894 66.4273 92.0879C68.3393 92.2321 70.6036 91.8526 72.4737 92.0761C73.833 92.238 74.3444 93.6087 73.7611 94.8364L60.8509 119.93C59.1954 119.852 57.3468 120.1 55.7128 119.953C54.9262 119.883 53.9333 119.527 53.6524 118.677L51.4595 94.5089C51.2811 93.6294 50.9078 93.205 49.9994 93.2558C50.1036 93.0773 50.1891 92.1228 50.2305 92.0808C50.4763 91.8331 56.2356 92.2528 57.0682 92.0832C57.98 92.3338 58.5192 93.1873 58.603 94.143L59.6241 109.319L59.6236 109.319Z" fill="#949494"/>
</svg>
