<svg width="235" height="60" viewBox="0 0 235 60" fill="none" xmlns="http://www.w3.org/2000/svg">
<g clip-path="url(#clip0_392_248)">
<path d="M95.9383 39.6943V22.8908C95.9383 22.524 95.9209 22.1572 95.9821 21.8078C96.1658 20.4629 96.8655 19.5022 98.2038 19.0567C102.455 17.5895 106.811 16.6113 111.307 16.2445C114.473 15.9825 117.631 16 120.771 16.4716C123.072 16.8209 125.294 17.4323 127.34 18.5153C131.364 20.6201 133.603 23.9825 134.364 28.3843C134.574 29.5284 134.636 30.6725 134.636 31.8078V57.3624C134.592 58.5415 134.058 59.1179 132.869 59.1353C130.358 59.1528 127.857 59.1528 125.355 59.1353C124.227 59.1353 123.667 58.5677 123.588 57.441C123.57 57.1528 123.588 56.8471 123.588 56.5677V33.7642C123.588 32.786 123.527 31.7816 123.221 30.8471C122.381 28.3581 120.509 27.0567 118.042 26.5065C116.013 26.0611 113.975 26.2008 111.919 26.4017C110.975 26.4803 110.03 26.6899 109.103 26.9083C107.502 27.2751 107.03 27.8864 107.03 29.5196V57.441C106.986 58.5415 106.409 59.1353 105.28 59.1528C103.968 59.1703 102.63 59.1528 101.318 59.1528C100.163 59.1528 98.9998 59.1703 97.8452 59.1528C96.4894 59.1353 95.9383 58.5589 95.9383 57.2139V39.6943Z" fill="#949494"/>
<path d="M32.6617 59.1266C31.4109 59.1266 30.1601 59.1441 28.9005 59.1266C27.6234 59.1092 27.1948 58.5327 27.5447 57.2664C27.7896 56.3493 27.9995 55.4323 28.017 54.4716C28.0608 52.0437 27.0548 50.1659 25.1042 48.7773C23.6697 47.7554 22.069 47.0655 20.3983 46.5327C17.6429 45.6594 14.8526 44.8384 12.0973 43.965C9.85801 43.2489 7.72371 42.3493 5.77311 41.0306C2.48419 38.786 0.848482 35.6856 0.656046 31.7467C0.306161 24.6288 4.29485 19.3886 10.8464 17.0655C13.8642 16.0087 17.0044 15.6419 20.1884 15.7205C25.2617 15.8602 30.1251 16.8646 34.7261 19.0218C35.3821 19.3275 36.0206 19.6506 36.6592 20.0175C37.9712 20.7511 38.3036 21.6681 37.7438 23.0568C37.5426 23.5633 37.289 24.0786 37.0703 24.5851C36.4317 25.9126 35.8195 27.2576 35.1634 28.5851C34.4199 30.0961 33.2303 30.5065 31.752 29.703C29.2854 28.3755 26.7399 27.2314 23.9933 26.5851C21.2992 25.9563 18.5964 25.6856 15.8585 26.2969C15.0188 26.4803 14.2141 26.786 13.4968 27.2751C11.4063 28.7249 11.3188 31.2489 13.3131 32.8209C14.1966 33.5109 15.22 33.9651 16.2871 34.3493C18.85 35.2838 21.5267 35.9214 24.1333 36.7161C26.5563 37.4498 28.9617 38.2882 31.201 39.4934C32.7405 40.3319 34.175 41.31 35.4083 42.5502C38.015 45.179 39.1434 48.4279 39.2483 52.0524C39.3095 53.6856 39.1696 55.3188 38.7147 56.9083C38.6535 57.1528 38.5748 57.4148 38.4873 57.6594C38.0762 58.7598 37.5864 59.1092 36.4143 59.1266C35.1634 59.1266 33.9126 59.1092 32.653 59.1092L32.6617 59.1266Z" fill="#949494"/>
<path d="M193.819 36.7336C193.819 30.2445 193.801 23.7642 193.819 17.2751C193.819 14.4017 194.273 11.607 195.419 8.93449C197.431 4.30567 201.087 1.65065 205.951 0.567679C209.38 -0.183413 212.835 -0.183412 216.264 0.524011C216.325 0.541478 216.386 0.541478 216.447 0.567679C218.136 0.951959 218.503 1.50218 218.171 3.2227C217.882 4.70742 217.62 6.1834 217.331 7.65065C217.042 9.17903 216.509 9.57205 214.925 9.34497C213.692 9.17903 212.441 8.96069 211.19 8.97816C210.491 8.99563 209.791 9.08296 209.135 9.24017C206.624 9.83405 205.172 11.6506 204.884 14.4017C204.822 14.9956 204.805 15.5808 204.779 16.1747C204.761 16.8646 204.761 16.8908 205.452 16.8908H215.267C216.762 16.8908 217.278 17.4236 217.296 18.9083C217.313 20.6812 217.313 22.4367 217.296 24.2096C217.296 25.6943 216.762 26.1921 215.24 26.1921H205.137C204.892 26.1921 204.787 26.3144 204.787 26.5589V27.3537C204.787 37.1441 204.77 46.9345 204.805 56.7424C204.805 58.3755 204.394 59.1878 202.426 59.1266C200.248 59.0655 198.07 59.0655 195.892 59.1266C194.37 59.1703 193.775 58.2882 193.792 57.048C193.81 50.2969 193.792 43.5022 193.792 36.7336H193.819Z" fill="#949494"/>
<path d="M234.65 38V57.1529C234.633 58.6201 234.117 59.1354 232.595 59.1354H226.848C226.314 59.1354 225.798 59.1529 225.264 59.1354C224.259 59.0917 223.681 58.5677 223.576 57.5634C223.533 57.2751 223.559 56.9695 223.559 56.69V19.3363C223.559 17.3363 224.014 16.9083 225.982 16.9083H232.612C234.09 16.9083 234.624 17.4411 234.641 18.9258V38H234.65Z" fill="#949494"/>
<path d="M235 5.91268C235.017 8.70744 233.627 10.7424 231.177 11.4411C229.822 11.8253 228.448 11.8079 227.093 11.4236C224.363 10.6288 223.113 8.36683 223.191 5.5284C223.209 5.08299 223.27 4.61137 223.375 4.16596C223.891 2.06116 225.203 0.716178 227.32 0.227095C228.72 -0.0960495 230.137 -0.0349142 231.51 0.454169C233.662 1.23146 234.711 2.83845 234.982 5.03932C235.026 5.32753 235 5.63321 235 5.91268Z" fill="#949494"/>
<path d="M11.8173 54.1135C11.7736 54.7423 11.7561 55.3188 11.6161 55.9126C11.0213 58.1397 9.56057 59.441 7.32131 59.869C6.1492 60.0961 4.95959 60.0349 3.81372 59.6681C1.98557 59.0742 0.752226 57.8952 0.262387 56.0349C-0.104991 54.6463 -0.0874971 53.2402 0.367353 51.8777C0.962157 50.1048 2.21299 48.9782 4.04114 48.5153C5.31822 48.1921 6.58655 48.2271 7.86363 48.5589C10.0854 49.1266 11.5812 50.9083 11.7823 53.1878C11.7998 53.5109 11.8261 53.8428 11.8261 54.1223L11.8173 54.1135Z" fill="#949494"/>
<path d="M85.608 22.2708C85.5293 20.6987 84.8295 19.5983 83.2638 19.1092C83.1588 19.0917 83.0801 19.0481 82.9751 19.0044C78.864 17.4935 74.6566 16.5153 70.2831 16.1922C67.1779 15.9651 64.0814 15.9476 61.0374 16.6638C53.5411 18.4192 48.4065 22.821 46.0273 30.1485C44.1817 35.8428 44.3829 41.5895 46.2985 47.2227C47.7155 51.4236 50.3484 54.7511 54.2496 57.0131C57.3286 58.8122 60.6962 59.6681 64.2126 59.869C68.2625 60.1136 72.2424 59.8079 76.2049 58.9083C78.6891 58.3406 81.0945 57.5633 83.43 56.5852C84.7421 56.035 85.4593 55.0743 85.5905 53.6681C85.608 53.345 85.608 53.0131 85.608 52.69V23.1267C85.608 22.8646 85.6255 22.559 85.608 22.2708ZM72.9772 48.8734C69.8545 49.8515 66.653 50.262 63.4253 49.4236C60.2239 48.5852 58.0459 46.5502 56.9787 43.4673C55.7279 39.8952 55.7016 36.2446 56.9612 32.6812C58.3608 28.7249 61.3348 26.6638 65.5072 26.297C67.7289 26.1136 69.9244 26.3144 72.0762 26.8908C72.3212 26.952 72.5923 27.0306 72.8372 27.1179C74.1143 27.5895 74.5429 28.1747 74.5604 29.5459C74.5779 32.4018 74.5604 35.2402 74.5604 38.0961C74.5604 40.952 74.5429 43.7293 74.5604 46.5415C74.5604 47.7205 74.0706 48.5415 72.9772 48.8909V48.8734Z" fill="#949494"/>
<path d="M184.678 31.0393C182.788 24.5153 178.765 19.8603 172.318 17.476C168.207 15.9651 163.956 15.6768 159.644 16.4541C153.153 17.6157 148.246 21.0393 145.325 26.9345C142.079 33.5022 141.913 40.3144 144.459 47.1266C146.654 53.0218 150.931 56.8996 156.923 58.8559C160.518 60.0175 164.236 60.262 167.971 59.7118C174.645 58.7511 179.701 55.3886 182.902 49.476C184.835 45.9039 185.57 42.0524 185.596 37.179C185.579 35.6506 185.325 33.3275 184.669 31.0393H184.678ZM173.368 43.7467C171.706 48.2533 167.743 50.1747 163.387 49.7642C162.259 49.6594 161.166 49.4585 160.125 49.0306C157.597 47.9913 155.891 46.1572 154.99 43.6244C153.652 39.8515 153.652 36.0349 155.034 32.2882C156.468 28.3493 159.801 26.1659 164.026 26.2271C165.014 26.2445 165.994 26.3319 166.965 26.5764C170.105 27.3886 172.266 29.3275 173.368 32.3057C174.767 36.1223 174.767 39.9738 173.368 43.7467Z" fill="#949494"/>
</g>
<defs>
<clipPath id="clip0_392_248">
<rect width="235" height="60" fill="white"/>
</clipPath>
</defs>
</svg>
