<svg width="147" height="50" viewBox="0 0 147 50" fill="none" xmlns="http://www.w3.org/2000/svg">
<g clip-path="url(#clip0_392_166)">
<path fill-rule="evenodd" clip-rule="evenodd" d="M48.4438 11.9692C46.2024 8.46515 43.0854 5.53039 39.3853 3.44412C35.5034 1.25589 30.9743 0.000183105 26.1343 0.000183105C21.2943 0.000183105 16.7651 1.25561 12.8835 3.44412C9.18315 5.53025 6.06639 8.46515 3.82471 11.9691C7.89603 13.3165 11.1272 16.3603 12.617 20.199C13.3474 18.3172 14.4942 16.6295 15.951 15.2387C18.5599 12.7476 22.16 11.2072 26.1343 11.2072C30.1098 11.2072 33.7112 12.7486 36.32 15.2409C37.7751 16.6312 38.9214 18.3178 39.6512 20.1979C41.1444 16.3472 44.3789 13.3173 48.4438 11.9692Z" fill="#949494"/>
<path fill-rule="evenodd" clip-rule="evenodd" d="M38.7516 31.6799C38.0956 32.8121 37.2784 33.8462 36.3297 34.754C33.7204 37.2495 30.1156 38.7929 26.1348 38.7929C22.1531 38.7929 18.5483 37.2491 15.9392 34.7529C13.3298 32.2569 11.7158 28.8085 11.7158 25.0001C11.7158 19.7335 8.16247 15.0996 2.92519 13.492C2.02846 15.143 1.31895 16.8995 0.823527 18.7362C0.285983 20.729 0 22.8279 0 25.0002C0 31.9036 2.92533 38.1538 7.65473 42.6778C12.3841 47.2017 18.9179 50.0001 26.1348 50.0001C29.5567 50.0001 32.8013 48.6939 35.1905 46.3487C37.4061 44.1742 38.7684 41.2057 38.7551 37.9344L38.7516 31.6799Z" fill="#949494"/>
<path fill-rule="evenodd" clip-rule="evenodd" d="M52.2696 25.0001C52.2696 22.8278 51.9835 20.7289 51.446 18.7361C50.9512 16.8996 50.2417 15.1428 49.3443 13.492C44.1287 15.0775 40.5633 19.7299 40.5505 24.9685V37.9308C40.5657 41.9013 38.7833 45.6696 35.6641 48.2872C39.102 46.9989 42.1858 45.034 44.7355 42.5636C49.394 38.0499 52.2696 31.8472 52.2696 25.0001Z" fill="#949494"/>
<path fill-rule="evenodd" clip-rule="evenodd" d="M74.6027 38.8919C77.9245 38.8919 80.6534 38.1355 82.7497 36.5841C84.8461 35.0331 85.9141 32.99 85.9141 30.3795C85.9141 28.1096 85.1623 26.3312 83.6596 25.0828C82.1569 23.8344 80.0605 22.775 77.4104 21.9428C76.2636 21.6022 74.4439 21.1482 73.6141 20.8834L72.3483 20.4673C71.5178 20.1269 71.2008 19.7484 71.2008 19.2565C71.2008 18.0838 72.427 17.5162 74.8403 17.5162C76.4218 17.5162 78.0436 17.781 79.7442 18.2729C81.4449 18.7647 82.9079 19.3701 84.134 20.089V13.5437C81.247 12.0682 78.1224 11.3493 74.7609 11.3493C68.116 11.3493 63.8839 14.1867 63.8839 19.2945C63.8839 20.8456 64.3584 22.2455 64.8729 23.1914C65.466 24.1371 66.7713 25.0451 67.5623 25.6126C67.9975 25.8774 68.5906 26.1424 69.3817 26.445L71.2008 27.1259L73.2177 27.6935L75.7098 28.4123C76.1842 28.5636 77.1728 28.8285 77.4898 29.0934C78.1224 29.5095 78.5571 29.8499 78.5571 30.6444C78.5571 32.0442 77.1338 32.7253 74.3255 32.7253C72.5454 32.7253 70.647 32.3848 68.63 31.666C66.6132 30.9471 65.0309 30.1149 63.8838 29.0934V36.0548C66.7712 37.9465 70.3307 38.8921 74.602 38.8921L74.6027 38.8919Z" fill="#949494"/>
<path fill-rule="evenodd" clip-rule="evenodd" d="M137.112 38.3701C140.078 38.3701 142.491 37.6891 144.271 36.2892C146.09 34.8893 147 33.0356 147 30.7655C147 28.8362 146.446 27.2849 145.378 26.0364C144.311 24.7879 143.085 24.0312 141.74 23.7285C143.441 22.9721 144.983 21.1559 144.983 18.5832C144.983 14.2324 141.424 11.8867 136.361 11.8867H122.875V38.3701H137.112ZM129.993 27.058H135.728C137.824 27.058 139.208 28.1174 139.208 29.8953C139.208 31.6736 137.903 32.6951 135.728 32.6951H129.993V27.058ZM129.993 17.4105H135.293C137.033 17.4105 138.141 18.2807 138.141 19.7562C138.141 21.156 137.033 22.0262 135.293 22.0262H129.993V17.4105Z" fill="#949494"/>
<path fill-rule="evenodd" clip-rule="evenodd" d="M112.681 45.2097C114.312 45.2097 115.785 44.9052 117.139 44.3342V38.6609C116.144 39.194 115.029 39.4604 113.835 39.4604C112.283 39.4604 111.009 38.9275 110.054 37.8234C112.641 36.7191 114.671 35.0059 116.184 32.7593C117.696 30.513 118.453 27.9999 118.453 25.2205C118.453 21.375 117.059 18.1006 114.273 15.3972C111.487 12.6938 107.984 11.3612 103.765 11.3612C99.5462 11.3612 96.0433 12.6939 93.2572 15.3972C90.4712 18.1006 89.0771 21.3749 89.0771 25.2205C89.0771 28.8375 90.3117 31.9978 92.819 34.625C95.3271 37.252 98.5109 38.6991 102.372 39.0036C106.233 43.5727 109.337 45.2097 112.681 45.2097ZM98.5109 30.6272C97.1176 29.2184 96.4411 27.3909 96.4411 25.2207C96.4411 23.0503 97.1176 21.2227 98.5109 19.8141C99.9036 18.4052 101.656 17.6821 103.765 17.6821C105.874 17.6821 107.586 18.4054 108.979 19.8141C110.372 21.2229 111.089 23.0503 111.089 25.2207C111.089 27.3909 110.372 29.2185 108.979 30.6272C107.586 32.036 105.874 32.7593 103.765 32.7593C101.655 32.7593 99.9036 32.0359 98.5109 30.6272Z" fill="#949494"/>
</g>
<defs>
<clipPath id="clip0_392_166">
<rect width="147" height="50" fill="white"/>
</clipPath>
</defs>
</svg>
