<svg width="100" height="100" viewBox="0 0 100 100" fill="none" xmlns="http://www.w3.org/2000/svg">
<g clip-path="url(#clip0_392_204)">
<g clip-path="url(#clip1_392_204)">
<path fill-rule="evenodd" clip-rule="evenodd" d="M46.7093 0.0179585C46.4893 0.0389789 45.7923 0.105043 45.1593 0.1641C30.1315 1.56446 16.3558 9.93758 8.0334 22.73C4.0872 28.7969 1.44507 35.8417 0.469023 42.8996C0.0820041 45.7033 0.00900045 46.8194 0.00900045 50.0064C0.00900045 53.9062 0.261013 56.5528 0.963048 60.0091C3.27416 71.3982 9.50247 81.6321 18.6129 89.0053C25.4503 94.5386 33.8277 98.2372 42.3851 99.5014C45.4383 99.9519 46.2493 100.005 50.1085 99.9989C53.3037 99.9939 54.0607 99.9629 55.6508 99.7697C67.1024 98.3764 77.2199 93.4806 85.2643 85.4428C92.3176 78.395 96.9998 69.7036 98.962 60.0172C100.345 53.1905 100.345 46.8234 98.962 39.9967C96.3708 27.2053 88.9374 16.0475 78.0099 8.54723C72.4516 4.73153 65.6223 1.94082 58.8589 0.718638C55.9138 0.186122 54.2727 0.0459857 50.5595 0.0119527C48.6614 -0.00606479 46.9293 -0.00306188 46.7093 0.0179585ZM47.2594 1.52042C38.2159 2.15603 30.3105 4.8006 23.1082 9.59825C17.6839 13.2108 12.9026 18.0484 9.33647 23.5308C2.0501 34.7336 -0.289015 48.4239 2.85514 61.4676C4.89624 69.9368 9.17546 77.6553 15.3048 83.9253C23.7712 92.5867 34.6457 97.6036 46.8093 98.4604C48.8654 98.6056 53.0087 98.5285 55.0098 98.3093C65.1363 97.1982 74.4467 93.1133 81.9611 86.4848C83.2822 85.3197 85.6963 82.8823 86.7633 81.6371C95.8608 71.0148 99.936 56.9812 97.9519 43.0997C95.9858 29.3364 88.2344 17.1316 76.5608 9.41507C70.1465 5.17496 62.7911 2.56243 54.8597 1.7056C53.4827 1.55745 48.4764 1.43533 47.2594 1.52042ZM47.6594 3.06591C37.9189 3.53037 28.3804 7.12986 20.767 13.2138C18.5909 14.9534 15.8198 17.638 14.1477 19.627C7.71739 27.2764 3.9432 36.4873 3.15916 46.442C3.02815 48.1016 3.02815 51.9103 3.15916 53.5699C3.79319 61.6127 6.38032 69.2141 10.7355 75.8245C13.8757 80.5921 18.3379 85.2076 22.9331 88.4427C26.6203 91.0382 31.3076 93.3905 35.4588 94.7288C44.8582 97.7578 54.9657 97.7808 64.2602 94.7939C67.4284 93.7759 71.3376 92.0122 74.0107 90.3936C85.1273 83.6661 92.9277 72.9207 95.7568 60.4396C98.1139 50.0385 96.8288 38.9147 92.1746 29.4235C86.5363 17.9263 76.6228 9.28495 64.5112 5.31009C60.506 3.99582 56.5998 3.29013 52.0496 3.06091C49.9575 2.95481 49.9645 2.95481 47.6604 3.06491L47.6594 3.06591ZM46.4713 8.43012C46.1373 9.46913 45.2583 12.1868 44.5172 14.47C43.7762 16.7532 43.1872 18.638 43.2082 18.659C43.2442 18.6951 46.3773 18.3167 46.8253 18.2216C47.0034 18.1836 47.1164 17.9534 47.4594 16.9224L47.8764 15.6691L49.8745 15.6962L51.8726 15.7232L52.3216 16.8713C52.5686 17.5029 52.7906 18.0394 52.8146 18.0635C52.8646 18.1135 56.2848 18.585 56.3228 18.5459C56.3368 18.5319 55.5328 15.8533 54.5357 12.5922L52.7236 6.6634H50.2665C48.9154 6.6614 47.6454 6.63438 47.4444 6.60034L47.0794 6.53928L46.4723 8.42812L46.4713 8.43012ZM34.4587 9.06573C31.8466 10.1588 29.6525 11.0897 29.5835 11.1357C29.4885 11.1988 29.5705 11.5201 29.9215 12.47C30.1755 13.1587 30.4155 13.7563 30.4535 13.7993C30.4925 13.8424 31.2176 13.5871 32.0656 13.2338C33.2007 12.7603 33.6267 12.6232 33.6797 12.7153C33.7187 12.7843 34.4777 14.6151 35.3668 16.7842C36.2558 18.9533 36.9979 20.7451 37.0159 20.7661C37.0849 20.8432 40.355 19.4228 40.357 19.3147C40.358 19.2526 39.664 17.3828 38.8139 15.1606C37.9639 12.9385 37.3009 11.0927 37.3389 11.0607C37.3779 11.0286 38.1169 10.7133 38.9819 10.36C39.847 10.0076 40.556 9.68534 40.557 9.6453C40.563 9.43709 39.453 7.11284 39.34 7.09783C39.268 7.08782 37.0709 7.97368 34.4577 9.06674L34.4587 9.06573ZM62.1001 8.04474C61.6581 9.07374 57.8799 18.5279 57.9019 18.5509C57.9519 18.601 61.5901 19.8802 61.6081 19.8542C61.6181 19.8392 61.8661 19.1515 62.1591 18.3257C62.4521 17.4999 62.7271 16.7842 62.7701 16.7352C62.8391 16.6571 63.8882 17.0014 64.0802 17.1656C64.1182 17.1986 64.2582 18.1385 64.3912 19.2546C64.5242 20.3707 64.6502 21.3006 64.6712 21.3206C64.8162 21.4558 67.9104 23.3646 67.9384 23.3366C67.9574 23.3176 67.9254 22.3646 67.8664 21.2185C67.8074 20.0734 67.7594 18.8362 67.7594 18.4689V17.8012L68.1724 17.7351C69.2795 17.558 70.2305 16.7792 70.7925 15.5911C71.0716 15.0025 71.1086 14.8203 71.1086 14.0656C71.1086 13.2808 71.0776 13.1467 70.7405 12.464C70.3255 11.6242 69.7265 10.9466 68.9414 10.4291C68.5184 10.1498 64.5612 8.50719 62.6331 7.80952L62.2581 7.67338L62.0981 8.04474H62.1001ZM49.2635 10.9936C48.9684 11.9435 48.7074 12.7773 48.6824 12.8454C48.6484 12.9395 48.8474 12.9705 49.4735 12.9695C49.9335 12.9695 50.4715 12.9415 50.6685 12.9085L51.0286 12.8484L50.4835 11.1327C50.1835 10.1888 49.9075 9.38304 49.8685 9.341C49.8305 9.29996 49.5575 10.0427 49.2635 10.9926V10.9936ZM64.6172 11.6582C64.5292 11.8004 63.7532 13.9985 63.7832 14.0195C63.7982 14.0295 64.2912 14.2297 64.8792 14.464C66.0693 14.9374 66.2153 14.9354 66.7373 14.4389C67.1484 14.0476 67.3064 13.511 67.1634 12.9815C67.0294 12.483 66.9774 12.444 65.8063 11.9675C64.7482 11.5371 64.6992 11.5241 64.6162 11.6572L64.6172 11.6582ZM24.6862 14.2718C22.4641 15.0626 20.657 16.8283 20.045 18.8092C19.749 19.7651 19.811 20.8932 20.205 21.718C20.78 22.9252 21.8481 23.6239 23.1082 23.6199C24.0862 23.6168 24.7452 23.3876 25.9533 22.6309C27.1054 21.9092 27.6014 21.724 27.9884 21.8722C28.3054 21.9933 28.5584 22.3516 28.5564 22.6779C28.5454 23.8951 26.6523 25.2454 24.5052 25.5677L24.0682 25.6338L24.6712 26.6848C25.0033 27.2624 25.3053 27.7679 25.3433 27.8069C25.4823 27.9521 26.8203 27.5757 27.7014 27.1443C29.1915 26.4146 30.3125 25.3575 31.1086 23.9322C31.6066 23.0403 31.7856 22.3086 31.7436 21.3446C31.6856 20.0284 31.0826 19.0885 29.8815 18.4438C28.6244 17.7692 27.3314 18.0264 25.2733 19.3617C24.2072 20.0534 23.6792 20.1975 23.1732 19.9353C22.5991 19.638 22.6301 18.9283 23.2542 18.0555C23.4692 17.7542 23.8902 17.3398 24.1892 17.1336C24.7362 16.7562 25.9003 16.2737 26.2633 16.2737C26.3703 16.2737 26.4583 16.2577 26.4583 16.2387C26.4583 16.0555 25.4243 14.0736 25.3313 14.0796C25.2633 14.0836 24.9742 14.1707 24.6872 14.2728L24.6862 14.2718ZM76.0908 17.4759C74.5367 17.9854 73.5417 19.4068 73.6967 20.8932C73.7807 21.701 74.0617 22.4407 74.5977 23.2705C75.2758 24.3195 75.4608 24.7279 75.4608 25.1774C75.4608 26.2994 74.0177 26.2614 73.0727 25.1153C72.4376 24.3446 71.7606 22.6609 71.7606 21.8551C71.7606 21.703 71.7326 21.5779 71.6986 21.5779C71.6646 21.5779 71.1476 21.8571 70.5505 22.1975L69.4645 22.8171L69.5265 23.2235C69.7315 24.5638 70.8695 26.6288 71.8846 27.4996C72.6366 28.1452 73.5757 28.7378 74.2467 28.9891C76.1108 29.6867 77.9689 29.0491 78.8359 27.4145C79.538 26.0912 79.319 24.839 78.0409 22.8631C77.3849 21.8491 77.2619 21.5719 77.2619 21.1144C77.2619 20.701 77.7109 20.1755 78.0649 20.1755C78.4189 20.1755 79.432 20.7721 79.856 21.2325C80.32 21.736 80.781 22.6169 80.967 23.3536C81.0401 23.6429 81.1331 23.8791 81.1741 23.8791C81.2151 23.8791 81.6571 23.6799 82.1571 23.4367C82.6571 23.1934 83.1172 22.9772 83.1792 22.9562C83.3402 22.9022 83.0372 22.0223 82.4851 20.9423C81.7391 19.4838 80.241 18.1195 78.7769 17.567C77.9559 17.2567 76.8698 17.2196 76.0928 17.4749L76.0908 17.4759ZM47.7594 20.9883C37.1439 21.744 27.7744 28.3584 23.4562 38.1449C20.095 45.7633 20.2 54.5699 23.7452 62.1362C27.3504 69.8327 34.4107 75.6824 42.6441 77.7944C51.0126 79.9415 59.809 78.2809 66.7603 73.242C77.7869 65.2502 81.7401 50.7291 76.2978 38.213C74.1747 33.3293 70.5875 28.9941 66.1603 25.9591C61.8961 23.0353 57.0089 21.3456 51.7596 20.9813C50.1375 20.8692 49.4305 20.8702 47.7594 20.9893V20.9883ZM47.5074 26.3095C42.8531 29.2163 41.1671 30.7768 40.27 33.007C40.144 33.3193 39.961 33.6476 39.862 33.7377C39.763 33.8278 39.306 33.9899 38.8449 34.099C37.7869 34.3503 36.1618 35.143 35.4958 35.7326C34.0077 37.0509 33.1857 39.3061 33.4607 41.318C33.5597 42.0437 33.8347 42.9796 34.1977 43.8234C34.4437 44.395 34.4007 44.5471 33.8077 45.2118C33.1417 45.9585 32.9646 46.468 32.8866 47.8594C32.8436 48.6351 32.8696 49.0005 32.9997 49.4609C33.3107 50.559 34.0827 51.4248 35.1798 51.9063C35.6328 52.1055 36.9768 52.4098 37.4029 52.4098H37.6569V51.3137C37.6569 46.9104 39.201 43.2709 41.9571 41.1749C44.6852 39.0999 49.3835 38.4172 53.1227 39.5513C58.2359 41.1018 61.7591 46.406 61.2501 51.7882C61.1961 52.3567 61.1961 52.7891 61.2491 52.8422C61.3611 52.9543 62.2421 52.7721 62.7991 52.5229C63.4682 52.2226 64.4162 51.4428 64.9183 50.7792C65.8733 49.517 66.2403 48.2898 66.0553 46.9835C65.9373 46.1537 65.6853 45.6312 65.0993 45.0036C64.8572 44.7443 64.6582 44.4631 64.6582 44.38C64.6582 44.2969 64.7722 43.9696 64.9112 43.6553C65.6743 41.9296 65.8223 40.0678 65.3203 38.5253C64.9772 37.4723 64.2242 36.3402 63.4232 35.6715C62.6881 35.0579 61.3251 34.3993 60.159 34.095C59.692 33.9729 59.236 33.8077 59.146 33.7277C59.056 33.6476 58.8879 33.3223 58.7719 33.003C58.2799 31.6506 56.9238 30.0811 54.9907 28.6237C53.5957 27.5727 49.7925 25.1834 49.5145 25.1854C49.4015 25.1854 48.4974 25.6929 47.5064 26.3115L47.5074 26.3095ZM48.9124 29.2623C48.5924 30.0741 48.2874 30.7928 48.2344 30.8609C48.1674 30.948 47.6284 30.992 46.4043 31.011L44.6692 31.038L46.0143 32.1151C46.7543 32.7077 47.3594 33.2582 47.3594 33.3383C47.3594 33.4544 46.7963 35.4703 46.4953 36.4343C46.4423 36.6034 46.4933 36.5924 46.9223 36.3442C47.1904 36.189 47.8184 35.7987 48.3184 35.4764C48.8624 35.126 49.3375 34.8908 49.5015 34.8908C49.6655 34.8908 50.2955 35.2131 51.1396 35.7366C51.8896 36.2021 52.5206 36.5654 52.5416 36.5434C52.5626 36.5224 52.3736 35.7897 52.1196 34.9158C51.8666 34.042 51.6596 33.3012 51.6596 33.2692C51.6596 33.2372 52.2656 32.7227 53.0066 32.1241L54.3527 31.037L52.5896 30.987L50.8265 30.937L50.2055 29.4065C49.8645 28.5646 49.5645 27.856 49.5405 27.8309C49.5155 27.8059 49.2335 28.4495 48.9134 29.2613L48.9124 29.2623ZM47.4924 39.9447C43.1272 40.7375 39.695 44.0617 38.7559 48.4049C38.4409 49.8623 38.4219 50.6801 38.6569 52.7091C38.9259 55.0293 39.253 56.8311 39.762 58.796C40.166 60.3585 40.437 61.2113 41.5961 64.5706C42.3301 66.6986 42.6461 68.094 42.7281 69.5754C42.8011 70.8777 42.6601 71.5383 42.1381 72.3461C41.9131 72.6935 41.4871 73.4712 41.1921 74.0738C40.76 74.9546 40.679 75.1929 40.782 75.292C41.0401 75.5412 43.5802 76.2169 45.4623 76.5372C47.0424 76.8064 50.7845 76.9155 52.4726 76.7414C53.8687 76.5982 56.2028 76.1298 57.4089 75.7514C58.1689 75.5132 58.3039 75.4391 58.2779 75.275C58.2509 75.1058 57.7979 74.1739 56.7468 72.1279C55.9098 70.4983 56.1458 67.9078 57.4589 64.3173C59.177 59.6198 59.959 55.9362 60.125 51.7561C60.201 49.8483 60.043 48.6601 59.49 46.9815C58.9319 45.2879 57.9009 43.6733 56.7638 42.7134C55.1768 41.3741 52.6916 40.234 50.6255 39.8986C49.7985 39.7645 48.3704 39.7855 47.4924 39.9447ZM47.7594 42.0407C45.5113 42.4451 43.9972 43.2319 42.6291 44.7053C41.7991 45.6002 41.3301 46.3729 41.3771 46.7693C41.3951 46.9164 41.5321 47.1257 41.6871 47.2408C41.9331 47.4239 42.1671 47.455 43.7372 47.518C45.5993 47.5911 46.0543 47.6742 46.7093 48.0556C47.5224 48.529 47.7154 48.8403 48.0174 50.1576C48.3864 51.7712 48.4264 53.639 48.0994 54.0794C47.9844 54.2345 47.7734 54.3757 47.6304 54.3927C47.3064 54.4317 46.9594 54.1044 46.9594 53.7611C46.9594 53.623 46.8643 53.4157 46.7483 53.2996C46.5623 53.1135 46.4643 53.0964 45.9233 53.1525C44.1062 53.3437 43.3252 53.3357 42.6871 53.1205C41.8941 52.8522 41.7991 52.8562 41.5981 53.1625C41.4711 53.3567 41.4491 53.5349 41.5011 53.9383C41.6341 54.9673 41.9771 56.4737 42.3251 57.5608C43.3982 60.906 45.0653 62.918 47.4464 63.7418C48.3784 64.0641 50.1115 64.0601 51.0586 63.7338C51.9426 63.4295 52.9787 62.7078 53.5547 61.9941C55.0738 60.1143 57.0969 55.5899 57.0849 54.0994C57.0799 53.5529 56.9438 53.1365 56.7188 52.9863C56.5128 52.8482 55.7228 52.9093 54.9707 53.1205C53.9977 53.3937 53.3087 53.3477 52.8226 52.9773C52.6296 52.8302 52.4096 52.7101 52.3326 52.7101C52.1206 52.7101 51.7566 53.1455 51.6096 53.5769C51.5086 53.8702 51.4046 53.9833 51.1696 54.0504C50.5775 54.2215 50.3295 53.7701 50.1535 52.2016C49.8985 49.9344 50.4855 48.548 51.9276 48.0075C52.8726 47.6532 54.0787 47.502 55.7288 47.53C57.0739 47.5531 57.2699 47.535 57.4279 47.3779C57.5999 47.2067 57.5949 47.1777 57.3079 46.6442C56.8258 45.7493 55.8208 44.5552 55.0007 43.9025C54.0917 43.1788 52.7086 42.4841 51.6086 42.1959C50.5855 41.9286 48.7874 41.8565 47.7584 42.0417L47.7594 42.0407ZM0 50.0064C0 51.2997 0.0140007 51.8292 0.0320016 51.1826C0.0490024 50.536 0.0490024 49.4769 0.0320016 48.8303C0.0150007 48.1837 0 48.7132 0 50.0064ZM42.7321 49.0075C41.7541 49.2557 41.2591 49.7422 41.2591 50.4569C41.2591 50.8022 41.5201 51.4078 41.6691 51.4078C41.7351 51.4078 42.0411 51.2847 42.3491 51.1335C42.8291 50.8983 43.0602 50.8543 43.9592 50.8242C44.6792 50.8002 45.2233 50.8393 45.6903 50.9484C46.5803 51.1566 46.5463 51.1626 46.7173 50.7532C46.9853 50.1095 46.5533 49.6281 45.3313 49.2107C44.6242 48.9694 43.2962 48.8653 42.7321 49.0085V49.0075ZM53.9097 49.0015C53.1917 49.1566 52.3756 49.511 52.0646 49.8022C51.7256 50.1196 51.6526 50.623 51.8976 50.9584C52.0316 51.1415 52.0566 51.1415 52.8226 50.9674C54.0167 50.6951 55.4108 50.7702 56.2408 51.1516C56.8338 51.4238 56.8808 51.4308 57.0409 51.2717C57.1649 51.1475 57.2109 50.9303 57.2109 50.4629C57.2109 49.7001 57.0039 49.4119 56.2728 49.1556C55.7228 48.9624 54.4707 48.8814 53.9107 49.0035L53.9097 49.0015ZM65.0752 53.1885C64.5452 53.4738 64.4482 53.5659 64.4892 53.7451C64.5162 53.8632 64.6282 54.2976 64.7382 54.71C65.1653 56.3146 65.2743 58.5067 65.0123 60.2153C64.7792 61.7308 64.5112 62.5366 63.5212 64.7037C61.8741 68.3052 61.7911 70.2751 63.1912 72.4572L63.5632 73.0378L63.9862 72.7865C64.2192 72.6484 64.6962 72.3281 65.0473 72.0748L65.6843 71.6144L65.4153 71.3331C64.8522 70.7446 64.5992 69.109 64.8692 67.8037C64.9292 67.5124 65.2413 66.3503 65.5623 65.2212C66.7843 60.922 66.9103 60.2444 66.9063 57.9642C66.9044 56.4427 66.8693 56.0253 66.6823 55.2806C66.4663 54.4227 65.9073 52.9413 65.7753 52.8782C65.7393 52.8612 65.4243 53.0003 65.0752 53.1885ZM33.2577 53.4848C32.4976 55.2015 32.0586 57.0773 32.0586 58.6018C32.0586 60.2874 32.3846 61.6247 33.7217 65.4214C34.3957 67.3353 34.4087 67.3933 34.4087 68.3743C34.4087 69.5084 34.2347 70.153 33.7457 70.8286C33.5797 71.0579 33.4657 71.3021 33.4917 71.3702C33.5687 71.5714 35.6568 72.9507 35.8008 72.8956C35.9888 72.8236 36.6038 71.6865 36.8498 70.9548C37.1019 70.206 37.1199 69.3012 36.9088 68.09C36.7278 67.05 36.4108 66.1661 35.4848 64.1201C34.2047 61.2904 33.9187 60.2093 33.9217 58.2144C33.9237 56.9472 34.1807 55.2385 34.5097 54.3066C34.7447 53.64 34.7117 53.5399 34.1617 53.2616C33.8887 53.1235 33.6207 53.0094 33.5667 53.0094C33.5127 53.0094 33.3737 53.2236 33.2577 53.4848ZM35.6298 53.7781C35.4558 54.0654 35.3378 55.5618 35.3878 56.8381C35.4558 58.5577 35.6608 59.4526 36.6108 62.1682C38.5769 67.7897 38.6089 67.9068 38.6079 69.4253C38.6069 70.4643 38.5789 70.6425 38.3209 71.2571C38.1639 71.6314 37.7929 72.3231 37.4979 72.7945C37.2029 73.266 36.9598 73.6714 36.9598 73.6954C36.9598 73.7855 38.7009 74.5362 38.8099 74.4942C38.9919 74.4241 40.141 72.6914 40.466 71.9958C40.814 71.2511 41.055 70.201 41.0571 69.4263C41.0601 67.9468 40.64 66.6226 39.236 63.6737C38.6859 62.5196 38.0899 61.1903 37.9109 60.7198C37.1789 58.799 36.8858 56.8741 37.0619 55.1384C37.1199 54.5699 37.1439 54.0674 37.1159 54.0213C37.0879 53.9763 36.8278 53.9142 36.5368 53.8832C36.2468 53.8522 35.9348 53.7981 35.8438 53.7621C35.7528 53.726 35.6568 53.7341 35.6298 53.7791V53.7781ZM63.0422 53.9623C63.0142 53.9903 62.7281 54.0474 62.4071 54.0874L61.8231 54.1605L61.8111 56.2125C61.8001 57.9722 61.7681 58.3816 61.5811 59.0913C61.2461 60.3645 60.738 61.6407 59.666 63.9009C58.5609 66.2312 58.2079 67.1431 58.0029 68.2081C57.7449 69.5434 57.8779 70.9978 58.3579 72.1009C58.6349 72.7375 59.979 74.7244 60.135 74.7284C60.3 74.7324 61.9621 73.9607 61.9621 73.8796C61.9621 73.8446 61.8541 73.6734 61.7211 73.4972C61.2831 72.9167 60.789 71.9878 60.514 71.227C59.994 69.7876 60.201 68.2802 61.3641 65.021C62.6971 61.2854 62.8951 60.6898 63.1762 59.5657C63.6272 57.765 63.6812 55.3586 63.3002 54.0854C63.2482 53.9122 63.1432 53.8622 63.0432 53.9623H63.0422ZM86.1603 56.2695L85.5113 57.9131H83.7232L81.9351 57.9141L83.2932 58.9902C84.0402 59.5817 84.6532 60.1363 84.6562 60.2224C84.6592 60.3084 84.4572 61.0682 84.2072 61.911C83.9572 62.7538 83.7672 63.4575 83.7842 63.4755C83.8012 63.4935 84.0172 63.3824 84.2632 63.2293C84.5092 63.0761 85.1873 62.6557 85.7703 62.2954L86.8293 61.6407L88.3474 62.5806C89.1825 63.0971 89.8805 63.5206 89.8985 63.5206C89.9165 63.5206 89.7135 62.7888 89.4465 61.894C89.1795 60.9991 88.9785 60.2203 89.0005 60.1623C89.0215 60.1042 89.6245 59.5867 90.3395 59.0112L91.6396 57.9652L89.8935 57.9151L88.1474 57.8651L87.4954 56.2635C87.1364 55.3827 86.8363 54.6539 86.8263 54.6439C86.8173 54.6339 86.5173 55.3656 86.1603 56.2695ZM12.2746 56.3116L11.6416 57.9101L9.89049 57.9371L8.13941 57.9642L9.49947 59.0482C10.2475 59.6448 10.8595 60.1403 10.8585 60.1493C10.8585 60.1583 10.6385 60.921 10.3695 61.8429C10.1005 62.7648 9.89349 63.5196 9.9085 63.5196C9.9235 63.5196 10.6195 63.0961 11.4536 62.5786L12.9696 61.6377L14.4867 62.5726C15.3208 63.0871 16.0148 63.4965 16.0278 63.4835C16.0408 63.4705 15.8998 62.944 15.7148 62.3134C15.5288 61.6828 15.3098 60.936 15.2278 60.6538L15.0778 60.1413L16.4278 59.0522L17.7779 57.9632L16.0378 57.9361L14.2977 57.9091L13.6537 56.3106C13.2997 55.4307 12.9866 54.712 12.9596 54.712C12.9326 54.712 12.6246 55.4317 12.2766 56.3106L12.2746 56.3116ZM48.5824 55.8271C47.6044 55.9142 47.5394 55.9462 47.5774 56.3266C47.6344 56.9041 47.9414 57.0243 49.3655 57.0243C50.5825 57.0243 50.6145 57.0192 50.8345 56.763C51.0716 56.4867 51.1326 56.0693 50.9515 55.9572C50.7605 55.8391 49.3285 55.76 48.5824 55.8271ZM45.9043 58.6028C45.7493 58.7579 45.9663 59.0742 46.7843 59.882C47.8394 60.924 48.1614 61.1172 48.9644 61.1903C49.8355 61.2694 50.5535 61.0041 51.2716 60.3385C51.9756 59.6858 52.6206 58.833 52.4976 58.7169C52.4076 58.6318 45.9863 58.5197 45.9043 58.6018V58.6028ZM44.5002 65.1752C44.5772 66.1281 44.7862 67.3513 44.9663 67.8958C45.0493 68.148 45.2313 68.3182 45.7453 68.6235C47.9934 69.9598 50.6425 70.0058 52.9797 68.7476C53.4167 68.5124 53.6847 68.2972 53.7507 68.13C54.0487 67.3653 54.4597 65.3423 54.4597 64.6376V64.2803L54.0527 64.6917C53.5357 65.2142 52.5246 65.7467 51.5046 66.035C50.4915 66.3213 48.6744 66.3443 47.6084 66.084C46.6753 65.8558 45.6233 65.3243 44.9652 64.7477L44.4272 64.2773L44.4992 65.1742L44.5002 65.1752ZM21.4181 70.7856C19.865 71.162 18.4819 72.257 17.8299 73.6294C16.6518 76.1058 17.0699 78.8564 18.9049 80.6922C19.926 81.7142 21.2231 82.3258 22.9291 82.5891L23.3492 82.6541L23.9052 81.545L24.4612 80.436H24.0262C22.8681 80.436 21.2881 79.451 20.736 78.384C20.586 78.0937 20.527 77.7904 20.525 77.2829C20.519 76.2819 20.762 75.6483 21.4271 74.9296C22.8441 73.3971 24.6382 73.3841 26.0663 74.8956C26.5553 75.4131 27.0584 76.305 27.0604 76.6583C27.0604 76.8034 27.2554 76.7374 28.1704 76.2779C29.4475 75.6373 29.4125 75.7334 28.8204 74.4812C27.9194 72.5723 26.0993 71.0579 24.3172 70.7355C23.5112 70.5894 22.1371 70.6134 21.4211 70.7876L21.4181 70.7856ZM73.3607 72.193C72.6726 72.8326 71.3006 74.0538 70.3105 74.9066C69.3205 75.7594 68.5104 76.5112 68.5104 76.5762C68.5104 76.6413 70.0145 78.6602 71.8526 81.0616C74.8587 84.9884 75.2128 85.4148 75.3728 85.3027C75.6228 85.1275 81.1071 80.459 81.6911 79.9245L82.1711 79.484L81.4211 78.5832C81.009 78.0877 80.627 77.6823 80.572 77.6823C80.517 77.6823 79.717 78.3359 78.7929 79.1337C77.8689 79.9315 76.9929 80.6872 76.8458 80.8113L76.5788 81.0375L75.9188 80.2398C75.5558 79.8003 75.2588 79.3999 75.2588 79.3499C75.2588 79.2999 75.9558 78.6652 76.8088 77.9405C77.6619 77.2158 78.3589 76.5842 78.3589 76.5372C78.3589 76.4431 77.0749 74.8996 76.9588 74.8525C76.9188 74.8365 76.1748 75.4351 75.3048 76.1808C74.4347 76.9276 73.6907 77.5031 73.6507 77.4611C73.6107 77.419 73.3247 77.0717 73.0136 76.6893L72.4496 75.9957L72.7296 75.7304C72.8836 75.5843 73.6967 74.8455 74.5357 74.0888L76.0628 72.7115L75.7558 72.3231C75.5868 72.1099 75.2598 71.7305 75.0298 71.4823L74.6107 71.0298L73.3607 72.193ZM30.4765 77.3299C26.6423 78.368 24.7352 82.1696 26.3133 85.629C27.3904 87.9893 29.9755 89.5008 32.6186 89.3136C34.6247 89.1724 36.5988 87.8261 37.4979 85.9863C38.2469 84.4539 38.2519 82.1596 37.5079 80.7042C36.2178 78.1808 33.0137 76.6423 30.4765 77.3289V77.3299ZM64.8602 78.423C63.5682 79.0716 61.9121 79.8684 61.1811 80.1947C60.046 80.7002 59.857 80.8163 59.891 80.9875C59.93 81.1847 63.7172 90.8831 63.8472 91.1183C63.8942 91.2044 64.6202 90.9221 66.3123 90.1624C70.6455 88.2155 72.1606 87.5068 72.1606 87.4287C72.1606 87.2666 71.2276 85.2416 71.1526 85.2416C71.1096 85.2416 70.0545 85.7141 68.8074 86.2926C67.5614 86.8712 66.5083 87.3437 66.4683 87.3437C66.3503 87.3437 65.5443 85.4168 65.6313 85.3417C65.6743 85.3047 66.5483 84.8963 67.5734 84.4338L69.4375 83.594L69.1885 83.0415C69.0515 82.7372 68.8474 82.2747 68.7364 82.0135C68.6254 81.7522 68.4934 81.538 68.4444 81.538C68.3954 81.538 67.5164 81.9214 66.4923 82.3909C65.4683 82.8593 64.6202 83.2317 64.6082 83.2167C64.5572 83.1556 63.8602 81.498 63.8602 81.4369C63.8602 81.4009 64.8262 80.9024 66.0073 80.3289C67.1884 79.7553 68.1564 79.2488 68.1574 79.2028C68.1614 79.0696 67.3274 77.2339 67.2654 77.2399C67.2344 77.2429 66.1523 77.7754 64.8592 78.424L64.8602 78.423ZM31.6076 80.1687C30.7605 80.499 29.9975 81.3028 29.4795 82.4099C29.2405 82.9204 29.2085 83.1096 29.2085 84.0064C29.2085 84.9774 29.2225 85.0434 29.5115 85.4558C30.2105 86.4518 31.4976 86.8141 32.5756 86.3207C33.7427 85.7861 34.8577 84.0465 34.8577 82.7602C34.8577 82.1476 34.5537 81.2698 34.1987 80.8534C33.5827 80.1327 32.4596 79.8364 31.6066 80.1687H31.6076ZM39.369 86.2446C38.6369 89.2195 38.0179 91.7309 37.9929 91.826C37.9539 91.9732 38.1989 92.0612 39.67 92.4266C40.617 92.6618 41.4251 92.819 41.4651 92.7759C41.5051 92.7329 41.7081 91.9441 41.9161 91.0232C42.1241 90.1023 42.3291 89.2925 42.3711 89.2245C42.4311 89.1274 42.9321 89.1804 44.6282 89.4617C45.8273 89.6609 46.8263 89.806 46.8483 89.786C46.8983 89.739 47.2744 87.3236 47.2364 87.2926C47.2214 87.2806 46.2693 87.1084 45.1213 86.9102C43.9732 86.712 43.0201 86.5379 43.0051 86.5209C42.9731 86.4878 43.4532 84.3117 43.5042 84.2607C43.5222 84.2426 44.6002 84.4108 45.9003 84.634C47.2004 84.8572 48.3004 85.0404 48.3464 85.0404C48.4164 85.0404 48.7964 82.3238 48.7314 82.2858C48.7194 82.2787 47.8314 82.1256 46.7593 81.9474C45.6863 81.7682 43.9222 81.4449 42.8391 81.2297C41.7551 81.0135 40.831 80.8373 40.784 80.8373C40.737 80.8373 40.101 83.2717 39.369 86.2456V86.2446ZM56.3098 81.549C55.2648 81.7072 53.4757 81.9424 52.3326 82.0725C51.1906 82.2017 50.2295 82.3348 50.1965 82.3668C50.1475 82.4159 50.8355 93.6638 50.8905 93.7108C50.9485 93.7609 54.3547 93.4856 54.4137 93.4266C54.4737 93.3665 54.4397 92.6898 54.2307 89.797L54.2087 89.4997L56.4408 89.1814C57.6689 89.0063 58.6849 88.8471 58.6999 88.8281C58.7289 88.7901 58.3479 86.3107 58.3059 86.2596C58.2909 86.2426 57.3219 86.3667 56.1528 86.5349C54.9827 86.704 54.0157 86.8302 54.0037 86.8171C53.9917 86.8031 53.9497 86.3357 53.9097 85.7791L53.8387 84.7662L54.1907 84.7001C54.3847 84.6641 55.4728 84.5039 56.6098 84.3447C57.7469 84.1856 58.6989 84.0324 58.7269 84.0054C58.7939 83.9384 58.3449 81.2347 58.2689 81.2497C58.2359 81.2568 57.3539 81.3919 56.3088 81.55L56.3098 81.549Z" fill="#949494"/>
</g>
</g>
<defs>
<clipPath id="clip0_392_204">
<rect width="100" height="100" fill="white"/>
</clipPath>
<clipPath id="clip1_392_204">
<rect width="100" height="100" fill="white"/>
</clipPath>
</defs>
</svg>
