<svg width="298" height="60" viewBox="0 0 298 60" fill="none" xmlns="http://www.w3.org/2000/svg">
<g clip-path="url(#clip0_392_597)">
<mask id="mask0_392_597" style="mask-type:luminance" maskUnits="userSpaceOnUse" x="0" y="0" width="298" height="60">
<path d="M298 0.079895H0.379517V60H298V0.079895Z" fill="white"/>
</mask>
<g mask="url(#mask0_392_597)">
<path fill-rule="evenodd" clip-rule="evenodd" d="M219.24 0H175.916V59.5007H191.716V8.00932H209.633C213.907 8.00932 217.423 11.5047 217.423 15.7989V59.5007H233.223V13.9614C233.203 6.29161 226.911 0 219.24 0Z" fill="#949494"/>
<path fill-rule="evenodd" clip-rule="evenodd" d="M283.558 0H254.196C246.526 0 240.234 6.29161 240.234 13.9614V45.5393C240.234 53.2091 246.526 59.5007 254.196 59.5007H283.558C291.249 59.5007 297.521 53.2091 297.521 45.5393V13.9614C297.541 6.29161 291.249 0 283.558 0ZM273.951 8.00932C278.225 8.00932 281.741 11.5047 281.741 15.7989V43.7217C281.741 47.996 278.245 51.5113 273.951 51.5113H263.824C259.549 51.5113 256.033 48.016 256.033 43.7217V15.7989C256.033 11.5246 259.529 8.00932 263.824 8.00932H273.951Z" fill="#949494"/>
<path fill-rule="evenodd" clip-rule="evenodd" d="M78.2802 0H113.076V8.00932H87.8879C83.6134 8.00932 80.1178 11.5047 80.1178 15.7989V17.3169C80.1178 21.5912 83.6134 25.1065 87.8879 25.1065H113.076V33.1158H80.1178V43.7217C80.1178 47.996 83.6134 51.5113 87.8879 51.5113H113.076V59.5206H78.2802C70.61 59.5206 64.318 53.229 64.318 45.5593V13.9614C64.318 6.29161 70.61 0 78.2802 0Z" fill="#949494"/>
<path fill-rule="evenodd" clip-rule="evenodd" d="M134.089 0H168.885V8.00932H143.697C139.422 8.00932 135.907 11.5047 135.907 15.7989V43.7217C135.907 47.996 139.402 51.5113 143.697 51.5113H168.885V59.5206H134.089C126.399 59.5206 120.127 53.229 120.127 45.5593V13.9614C120.127 6.29161 126.399 0 134.089 0Z" fill="#949494"/>
<path fill-rule="evenodd" clip-rule="evenodd" d="M57.267 0H0V8.00932H20.7535V59.5007H36.5534V15.7989C36.5534 11.5246 40.0489 8.02929 44.3235 8.00932H57.3069V0H57.267Z" fill="#949494"/>
</g>
</g>
<defs>
<clipPath id="clip0_392_597">
<rect width="298" height="60" fill="white"/>
</clipPath>
</defs>
</svg>
