<svg width="115" height="66" viewBox="0 0 115 66" fill="none" xmlns="http://www.w3.org/2000/svg">
<g clip-path="url(#clip0_392_202)">
<path d="M47.9675 0.696915C41.3612 2.41786 32.9508 5.66546 27.4271 8.63549C18.7668 13.271 10.9115 19.6829 6.35928 25.7895C4.41627 28.4264 1.8626 33.395 1.19643 35.9209C0.474736 38.6133 0.335949 43.0822 0.891095 45.6082C2.27896 51.8535 6.88667 57.1274 13.9925 60.7081C25.9282 66.7037 43.9426 67.6752 62.0682 63.2618C69.285 61.5131 77.8343 58.321 84.0519 55.0179C87.6049 53.1581 88.7707 52.2976 88.7707 51.6037C88.7707 51.1596 88.1878 51.3817 84.8291 53.1304C74.5589 58.432 63.9279 61.7074 51.7147 63.2618C47.5789 63.7892 46.1077 63.8447 39.9178 63.7336C30.3416 63.5393 24.7624 62.5123 18.2949 59.7921C12.1606 57.1829 7.41406 53.1859 5.24899 48.8002C3.77785 45.7747 3.27822 43.7207 3.27822 40.6951C3.27822 33.6448 6.8034 26.872 14.1313 19.8217C22.5695 11.7165 34.977 5.0548 48.245 1.50188C51.1873 0.696915 52.714 -0.0525284 51.2983 0.00298309C50.9097 0.00298309 49.4108 0.308311 47.9675 0.696915Z" fill="#949494"/>
<path d="M65.8151 0.669487C52.6581 2.16838 40.1396 6.13767 28.8979 12.4108C26.8994 13.5211 25.9556 14.4371 26.3997 14.8534C26.483 14.9367 28.0652 14.1873 29.9527 13.188C34.7269 10.6899 38.9738 8.91339 44.4975 7.10917C58.2651 2.64025 72.0327 1.22463 84.3847 3.02885C99.0961 5.19392 109.172 12.0222 111.393 21.3764C111.975 23.9023 111.92 27.7328 111.254 30.3975C110.588 33.09 108.145 38.0308 106.202 40.6399C103.981 43.61 98.9851 48.4675 95.4321 51.1044C88.1875 56.4616 81.5812 59.8202 71.5886 63.2343C65.8706 65.2051 64.0664 66.2599 68.5353 65.0386C79.0831 62.1518 89.5753 57.1555 97.5694 51.2155C100.984 48.6895 106.563 43.2491 108.728 40.3624C110.504 37.9752 113.28 32.396 113.891 29.9534C114.612 27.0111 114.723 23.7358 114.196 21.0711C112.114 10.7454 101.983 3.50073 85.9946 0.94706C81.9976 0.308647 70.4228 0.142097 65.8151 0.669487Z" fill="#949494"/>
<path d="M25.3176 19.6826C22.3476 20.3765 19.2943 24.1237 17.4345 29.3144C17.0737 30.3136 16.5463 31.2296 16.1854 31.4517C15.5748 31.868 14.1036 32.3399 14.1036 32.1456C14.1036 32.0901 14.7421 30.2581 15.4915 28.0653C16.2687 25.8725 16.8794 24.0405 16.8794 23.9572C16.8794 23.8739 16.1022 23.8462 15.1862 23.9017L13.493 23.985L12.9656 25.3728C12.688 26.1223 11.4389 29.7585 10.1899 33.4224C8.94079 37.0864 7.85825 40.2507 7.77498 40.445C7.69171 40.7226 8.05255 40.7781 9.3849 40.7226L11.1059 40.6393L12.3549 37.1697C13.0211 35.2544 13.6595 33.6167 13.7706 33.5335C13.8816 33.4224 14.4922 33.2559 15.1307 33.1449L16.2687 32.9783L16.1299 35.1434C15.9356 37.8358 16.352 39.3902 17.4345 40.334C18.5448 41.25 19.9049 41.4998 21.5426 41.0279C23.4301 40.5005 26.1781 37.7248 27.6492 34.8103C29.5089 31.0631 30.2861 28.2873 30.3139 25.0953C30.3417 22.0975 29.9808 20.9039 28.7317 20.1267C27.9268 19.6271 26.4001 19.405 25.3176 19.6826ZM26.8998 21.237C28.4819 23.1522 24.6237 35.7263 21.3761 39.1682C18.1007 42.6656 18.9889 33.3947 22.6806 25.6504C23.9852 22.8747 25.4841 20.7929 26.1781 20.7929C26.3724 20.7929 26.7055 20.9872 26.8998 21.237Z" fill="#949494"/>
<path d="M67.4531 27.2886C65.9264 27.7882 64.5941 28.8152 63.234 30.5639C61.9571 32.1739 61.8739 31.924 62.8176 29.1483L63.4838 27.1498L61.6796 27.2331L59.8754 27.3163L56.5722 37.2257L53.2969 47.1628H55.0456H56.7943L57.8491 44.0262L58.9316 40.9174L61.1522 40.7509C63.9557 40.5288 65.7044 39.6961 67.8972 37.5033C70.0623 35.3104 71.3391 32.6735 71.4779 30.0921C71.5612 28.6764 71.4779 28.0103 71.1726 27.6494C70.6452 26.9833 68.952 26.8167 67.4531 27.2886ZM67.6752 29.8145C68.7022 31.0636 65.8154 37.8363 63.7059 39.1132C62.7066 39.7238 61.5408 39.8349 60.6526 39.363C59.6811 38.8356 59.6533 38.5858 60.264 36.8093C60.7358 35.3659 61.2355 34.6998 63.345 32.507C65.5378 30.2309 66.4538 29.4814 67.1478 29.4259C67.2588 29.3981 67.4809 29.5924 67.6752 29.8145Z" fill="#949494"/>
<path d="M73.6985 27.0942C73.3654 27.6493 69.8958 38.5579 69.8958 39.0298C69.8958 39.3074 70.0901 39.8348 70.3399 40.1679C70.8673 40.9173 72.7825 41.0006 74.2259 40.3344C75.1141 39.9181 76.7796 38.3081 77.7511 36.9203C78.4728 35.8655 78.556 36.3651 77.9454 38.1416C76.8351 41.3892 74.6423 43.9429 71.2836 45.8859C70.2844 46.4688 69.4239 46.9962 69.3406 47.0794C69.2573 47.1627 70.1456 47.1627 71.2836 47.1072C72.838 46.9962 73.754 46.7741 74.8921 46.1912C78.9446 44.1372 79.8051 42.8048 82.6641 34.1445C83.8854 30.3973 84.8847 27.2607 84.8847 27.122C84.8847 26.7611 81.9424 26.8721 81.6093 27.233C81.4705 27.4273 81.0264 28.6486 80.6378 29.9532C80.0272 31.8962 79.6108 32.7012 78.1397 34.5331C75.6415 37.642 74.6978 38.3636 74.0594 37.5864C73.8095 37.2811 74.0594 36.1431 75.3362 32.3958C76.1967 29.7589 76.9739 27.4273 77.0571 27.233C77.1404 26.9832 76.7241 26.8999 75.5027 26.8999C74.559 26.8999 73.754 26.9832 73.6985 27.0942Z" fill="#949494"/>
<path d="M91.463 27.2053C87.4659 28.149 83.6077 32.5347 83.2746 36.5317C83.108 38.4747 83.7187 39.7238 85.1065 40.39C87.2716 41.417 92.9619 40.5565 93.6836 39.1131C93.8779 38.7523 93.9889 38.4192 93.9611 38.3637C93.9056 38.3359 93.2672 38.4747 92.5177 38.6968C90.3804 39.363 88.715 39.2519 87.799 38.3915C87.1051 37.753 87.0496 37.5587 87.1606 35.9766C87.4104 32.1183 90.4915 28.0102 93.1562 28.0102C94.4608 28.0102 94.9604 28.5654 94.8216 29.8977C94.7383 31.008 94.7661 31.0635 95.46 31.0635C96.0984 31.0635 96.2372 30.8692 96.7369 29.3148L97.292 27.5939L96.2927 27.2608C95.1269 26.8722 92.9341 26.8444 91.463 27.2053Z" fill="#949494"/>
<path d="M96.8202 32.8674C94.7384 39.2238 94.6551 39.8899 95.9042 40.6949C97.2921 41.6109 101.345 40.5561 103.898 38.6131C105.675 37.2808 106.535 35.9762 106.535 34.6993C106.535 32.8951 105.758 32.451 102.677 32.451C101.428 32.451 100.429 32.4232 100.429 32.3677C100.429 32.3122 100.817 31.1742 101.261 29.8141C101.733 28.454 102.094 27.2604 102.094 27.1216C102.094 27.0106 101.345 26.8996 100.456 26.8996H98.7909L96.8202 32.8674ZM102.483 33.6168C102.871 33.7834 103.26 34.1442 103.371 34.4495C103.787 35.8096 102.066 38.1412 99.929 39.0295C98.3746 39.6679 98.2358 39.2238 99.1518 36.3925C100.151 33.3115 100.734 32.8118 102.483 33.6168Z" fill="#949494"/>
<path d="M30.0085 33.8949L27.8157 40.6399L29.4534 40.7232C30.3693 40.7787 31.1465 40.7509 31.2021 40.6954C31.2853 40.6399 31.7295 39.4186 32.2291 37.9752L33.1451 35.366L34.8105 35.1995C35.6987 35.0884 36.8645 34.9219 37.3642 34.8109C37.8638 34.6998 38.2524 34.6998 38.2524 34.8664C38.2524 35.0052 37.8916 36.3098 37.4197 37.7254C36.9756 39.1688 36.587 40.4456 36.587 40.5566C36.587 40.6954 37.3364 40.7787 38.2524 40.7787C39.7235 40.7787 39.9734 40.6954 40.1954 40.1403C40.473 39.4741 44.359 27.483 44.359 27.2887C44.359 27.2331 43.5541 27.1776 42.6103 27.1776H40.8338L40.3342 28.8708C39.6958 30.9249 38.7798 32.4238 37.5862 33.2287C36.6425 33.8671 34.0888 34.4778 33.7557 34.1447C33.6169 34.0337 34.0333 32.4515 34.644 30.6473C35.2546 28.8431 35.7543 27.3164 35.7543 27.2609C35.7543 27.2054 34.9493 27.1776 33.9778 27.1776H32.1736L30.0085 33.8949Z" fill="#949494"/>
<path d="M46.3576 27.6491C45.8024 28.7594 42.6936 38.5577 42.6936 39.2239C42.6936 40.1676 43.6096 41.0558 44.5811 41.0558C46.3576 41.0558 47.3568 40.5007 49.1888 38.5022C50.1881 37.4196 51.0208 36.6702 51.0208 36.8367C51.0208 36.9755 50.7155 37.9193 50.3269 38.9463L49.6329 40.7783H51.4094H53.1859L55.3509 34.3108C56.5167 30.7857 57.5438 27.7046 57.627 27.5103C57.7103 27.2327 57.3495 27.1772 56.0171 27.2327L54.2684 27.316L53.4912 29.8142C52.6862 32.3401 51.0763 34.8937 48.8557 37.0866C47.8842 38.0581 46.9405 38.2801 46.6907 37.5862C46.6074 37.3641 47.2736 34.9215 48.1895 32.1735L49.855 27.1772H48.2451C46.9682 27.1772 46.5519 27.2882 46.3576 27.6491Z" fill="#949494"/>
</g>
<defs>
<clipPath id="clip0_392_202">
<rect width="115" height="66" fill="white"/>
</clipPath>
</defs>
</svg>
