<svg width="379" height="60" viewBox="0 0 379 60" fill="none" xmlns="http://www.w3.org/2000/svg">
<g clip-path="url(#clip0_392_219)">
<path fill-rule="evenodd" clip-rule="evenodd" d="M24.4688 29.3012C27.6105 30.6489 30.32 33.9268 30.32 38.6523C30.32 44.7255 26.9954 48.619 22.7732 49.8004C20.1801 50.5824 17.4872 50.5824 15.0104 50.5824H0V9.41766H15.9246C17.8861 9.41766 20.0803 9.46758 22.2746 10.0333C26.0479 11.0483 29.5221 14.193 29.5221 20C29.5221 25.3411 26.4801 27.9368 24.4688 29.0017V29.2846V29.3012ZM16.2072 27.2712C17.67 27.2712 19.0165 27.1049 20.1468 26.4227C21.7759 25.5242 22.9062 23.6107 22.9062 20.7321C22.9062 17.8536 21.5598 16.0566 19.5817 15.391C18.6342 14.9917 17.4539 14.8752 15.9246 14.8752H6.53276V27.2546H16.2072V27.2712ZM23.5213 38.6356C23.5213 35.6573 22.0585 33.9601 20.3131 33.228C19.1827 32.7787 17.9028 32.6623 16.7724 32.6623H6.53276V45.1581H16.6561C17.8861 45.1581 19.0664 45.0416 20.0305 44.7088C22.2247 43.8603 23.5213 41.8969 23.5213 38.6356Z" fill="#949494"/>
<path fill-rule="evenodd" clip-rule="evenodd" d="M82.3992 44.5591L78.0108 50.5823H36.7197L59.1106 9.43427H72.8411V44.7421L82.3992 44.5757V44.5591ZM66.4247 45.0083V14.4259H62.1526L45.8955 44.9917H66.4247V45.0083Z" fill="#949494"/>
<path fill-rule="evenodd" clip-rule="evenodd" d="M125.685 9.41766V50.5657H119.152V31.4809H98.2907V50.5657H91.8245V9.41766H98.2907V25.8569H119.152V9.41766H125.685Z" fill="#949494"/>
<path fill-rule="evenodd" clip-rule="evenodd" d="M154.243 33.7937L142.94 50.5657H136.407L151.151 29.3344L137.088 9.401H144.901L155.141 23.9268L164.865 9.401H171.165L158.166 28.3195L173.808 50.5657H166.045L154.226 33.7937H154.243Z" fill="#949494"/>
<path d="M372.018 48.3694L373.132 42.5624C369.924 46.822 365.968 49.1847 359.85 49.1847C354.415 49.1847 349.844 45.9734 349.844 40.832C349.844 33.2945 356.825 29.7005 375.925 28.2197L376.174 27.1714C376.423 25.99 376.54 25.0083 376.54 24.0766C376.54 18.1365 371.968 16.5391 367.464 16.5391C360.798 16.5391 356.775 19.817 355.728 24.7588H353.201C354.382 18.3195 360 14.3095 367.414 14.3095C373.897 14.3095 379.033 16.9717 379.033 23.7105C379.033 24.8919 378.784 26.0566 378.485 27.4875L376.44 36.9551C375.509 41.1647 374.961 44.6256 374.395 48.4027H372.052L372.018 48.3694ZM374.794 34.01L375.592 30.416C357.058 32.213 352.42 35.3078 352.42 40.4992C352.42 44.2097 355.379 46.9385 360.515 46.9385C366.084 46.9385 372.816 43.7271 374.794 34.01Z" fill="#949494"/>
<path d="M322.898 25.7238C321.286 30.0166 319.806 33.6606 318.443 36.6722C317.08 39.6339 315.75 42.0466 314.42 43.9101C313.107 45.7737 311.744 47.1215 310.348 47.9867C308.952 48.8186 307.422 49.218 305.777 49.218C304.048 49.218 302.868 48.7188 302.253 47.7371C301.638 46.7554 301.372 45.5241 301.455 44.0932C301.571 42.6456 301.87 41.2479 302.319 39.8835L308.32 21.8303C308.735 20.5491 308.868 19.6007 308.752 18.985C308.636 18.3195 308.154 18.0033 307.339 18.0033C306.525 18.0033 305.777 18.4359 304.995 19.3012C304.247 20.1664 303.449 21.8303 302.585 24.3095L301.787 26.6057H300.607L302.153 22.0965C302.768 20.3661 303.499 19.0516 304.314 18.1364C305.178 17.2213 306.059 16.6057 306.973 16.2729C307.921 15.9068 308.802 15.7238 309.633 15.7238C311.445 15.7238 312.642 16.1564 313.224 17.0216C313.839 17.8536 314.071 18.9185 313.905 20.2329C313.789 21.5474 313.473 22.9285 312.974 24.376L307.106 42.0632C306.691 43.3444 306.491 44.5424 306.491 45.6572C306.491 46.772 306.94 47.2712 307.854 47.2712C308.835 47.2712 309.866 46.8053 310.946 45.8569C312.027 44.9085 313.107 43.5607 314.221 41.8303C315.368 40.0998 316.532 38.02 317.679 35.5907C318.826 33.1614 319.972 30.4492 321.07 27.4875C322.183 24.4759 323.28 21.2646 324.344 17.8369L322.931 25.7571L322.898 25.7238ZM322.532 42.0632C322.283 42.8952 322.1 43.7105 321.967 44.5424C321.884 45.3245 321.951 45.99 322.15 46.5225C322.399 47.0216 322.898 47.2712 323.63 47.2712C324.577 47.2712 325.591 46.822 326.655 45.9068C327.719 44.9584 328.816 43.6439 329.93 41.9468C331.077 40.2496 332.224 38.2529 333.321 35.9401C334.434 33.6273 335.482 31.0982 336.479 28.3361C337.51 25.574 338.44 22.6456 339.255 19.5507L337.21 29.4509C335.814 33.1614 334.468 36.2729 333.188 38.7854C331.908 41.2978 330.661 43.3444 329.414 44.9085C328.184 46.4393 326.921 47.5541 325.641 48.2529C324.361 48.9185 322.998 49.2346 321.568 49.2346C320.255 49.2346 319.274 48.9517 318.659 48.3694C318.078 47.7537 317.728 46.9717 317.612 46.0233C317.496 45.0749 317.512 44.0599 317.679 42.995C317.878 41.9301 318.111 40.8985 318.36 39.9002L324.66 16.589C325.691 16.5557 326.671 16.4725 327.619 16.3394C328.616 16.223 329.497 16.0067 330.279 15.7238L322.499 42.0799L322.532 42.0632ZM337.975 43.1115C337.892 43.4443 337.792 43.9101 337.659 44.5258C337.543 45.1414 337.543 45.7071 337.659 46.1897C337.776 46.6888 338.174 46.9384 338.839 46.9384C339.737 46.9384 340.568 46.4725 341.316 45.5241C342.097 44.5424 342.879 42.9118 343.66 40.6323L344.458 38.3361H345.638L344.092 42.8453C343.51 44.5757 342.796 45.8902 341.931 46.8053C341.1 47.7205 340.219 48.3361 339.272 48.6689C338.374 49.0349 337.476 49.218 336.612 49.218C335.382 49.218 334.484 48.9351 333.952 48.3527C333.454 47.8203 333.171 47.1215 333.088 46.2562C333.055 45.391 333.105 44.4592 333.271 43.4775C333.47 42.4459 333.703 41.4809 333.952 40.5657L340.003 16.5724C341.034 16.5391 342.014 16.4559 342.962 16.3228C343.959 16.2063 344.84 15.99 345.621 15.7072L337.958 43.1115H337.975Z" fill="#949494"/>
<path d="M266.53 48.3694H264.186L271.234 15.0915H273.645L267.394 44.2928L294.955 15.0915H297.365L290.317 48.3694H287.907L294.091 18.9351L266.53 48.3694Z" fill="#949494"/>
<path d="M252.085 17.6872C251.171 17.6872 250.123 18.203 248.926 19.2346C247.779 20.2662 246.599 21.6639 245.402 23.4443C244.255 25.2246 243.158 27.2379 242.128 29.5008C241.13 31.7637 240.332 34.1431 239.717 36.6057L241.13 29.9334C242.577 26.3893 243.973 23.5774 245.336 21.5141C246.732 19.4509 248.129 17.97 249.541 17.0549C250.938 16.1398 252.384 15.6905 253.863 15.6905C255.792 15.6905 257.338 16.406 258.501 17.8536C259.698 19.3012 260.296 21.4809 260.296 24.4093C260.296 26.2729 260.03 28.3028 259.499 30.5324C259 32.7621 258.235 34.9584 257.205 37.1547C256.207 39.3344 254.977 41.3644 253.498 43.2113C252.052 45.025 250.389 46.4892 248.494 47.604C246.599 48.6689 244.505 49.218 242.194 49.218C240.964 49.218 239.85 48.8519 238.853 48.1032C237.906 47.3544 237.274 46.2895 236.941 44.8918L237.44 43.6606C238.022 45.1913 238.67 46.2562 239.418 46.8719C240.199 47.4875 241.114 47.8037 242.144 47.8037C243.541 47.8037 244.887 47.2712 246.167 46.1897C247.447 45.0749 248.611 43.6106 249.691 41.797C250.755 39.9834 251.686 37.9867 252.467 35.7903C253.298 33.5607 253.913 31.3644 254.329 29.1681C254.778 26.9384 255.01 24.9085 255.01 23.0449C255.01 21.1814 254.744 19.8835 254.212 19.0183C253.714 18.1032 253.016 17.6539 252.118 17.6539L252.085 17.6872ZM224.524 47.2546C225.472 47.2546 226.519 46.7388 227.682 45.7072C228.829 44.6755 229.993 43.2779 231.14 41.4975C232.337 39.7171 233.434 37.7038 234.415 35.4409C235.445 33.178 236.276 30.7987 236.892 28.3361L235.661 35.0083C234.215 38.5191 232.802 41.3145 231.389 43.4276C229.993 45.4908 228.564 46.9717 227.117 47.8869C225.721 48.802 224.258 49.2512 222.729 49.2512C221.449 49.2512 220.319 48.9351 219.338 48.3195C218.39 47.6539 217.642 46.6889 217.11 45.4077C216.578 44.0932 216.312 42.4626 216.312 40.5158C216.312 38.569 216.562 36.6223 217.061 34.3927C217.592 32.1631 218.357 29.9667 219.354 27.7704C220.385 25.5907 221.615 23.5774 223.061 21.7637C224.541 19.9002 226.236 18.4526 228.131 17.371C230.026 16.2562 232.121 15.7072 234.431 15.7072C235.661 15.7072 236.759 16.0732 237.706 16.822C238.687 17.5707 239.352 18.6356 239.684 20.0333L239.185 21.2646C238.654 19.7005 237.989 18.619 237.207 18.0532C236.459 17.4376 235.562 17.1215 234.481 17.1215C233.085 17.1215 231.738 17.6705 230.458 18.7854C229.179 19.8502 228.015 21.2978 226.934 23.1115C225.854 24.9251 224.906 26.9384 224.092 29.1681C223.311 31.3478 222.696 33.5607 222.23 35.7903C221.815 37.9701 221.615 40 221.615 41.8469C221.615 43.6938 221.865 45.025 222.363 45.9235C222.895 46.7887 223.627 47.2213 224.524 47.2213V47.2546ZM253.814 0.93178C253.032 0.93178 252.351 1.09817 251.769 1.43095C251.187 1.76373 250.672 2.12978 250.223 2.54576C249.475 3.24459 248.827 4.32612 248.245 5.75707C247.713 7.15474 247.198 8.78536 246.699 10.6489C246.25 12.5125 245.751 14.4592 245.22 16.5225L233.783 59.1348C232.786 59.1681 231.822 59.2512 230.874 59.3844C229.927 59.5008 229.046 59.7171 228.214 60L239.834 16.5225C240.698 13.228 241.612 10.4992 242.543 8.35275C243.541 6.20632 244.721 4.45923 246.134 3.09484C247.081 2.14642 248.228 1.39767 249.591 0.865225C250.988 0.282862 252.417 0 253.863 0C255.758 0 257.205 0.432612 258.185 1.29784C259.216 2.12978 259.731 3.1614 259.731 4.39268C259.731 5.09151 259.548 5.77371 259.183 6.43927C258.817 7.10483 258.318 7.63727 257.703 8.05324C257.088 8.46922 256.39 8.66889 255.609 8.66889C254.828 8.66889 254.212 8.48586 253.747 8.1198C253.298 7.75374 253.082 7.23794 253.132 6.57238C253.132 5.54077 253.464 4.67554 254.129 3.97671C254.794 3.22795 255.625 2.71215 256.656 2.42928C256.656 2.06323 256.39 1.73045 255.858 1.44759C255.326 1.11481 254.645 0.948419 253.814 0.948419V0.93178Z" fill="#949494"/>
<path d="M205.342 48.3694L206.455 42.5624C203.247 46.822 199.291 49.1847 193.174 49.1847C187.738 49.1847 183.167 45.9734 183.167 40.832C183.167 33.2945 190.148 29.7005 209.248 28.2197L209.497 27.1714C209.747 25.99 209.863 25.0083 209.863 24.0766C209.863 18.1365 205.292 16.5391 200.787 16.5391C194.121 16.5391 190.098 19.817 189.051 24.7588H186.525C187.705 18.3195 193.323 14.3095 200.737 14.3095C207.22 14.3095 212.356 16.9717 212.356 23.7105C212.356 24.8919 212.107 26.0566 211.808 27.4875L209.763 36.9551C208.832 41.1647 208.284 44.6256 207.719 48.4027H205.375L205.342 48.3694ZM208.134 34.01L208.932 30.416C190.398 32.213 185.76 35.3078 185.76 40.4992C185.76 44.2097 188.719 46.9385 193.855 46.9385C199.407 46.9385 206.156 43.7271 208.134 34.01Z" fill="#949494"/>
</g>
<defs>
<clipPath id="clip0_392_219">
<rect width="379" height="60" fill="white"/>
</clipPath>
</defs>
</svg>
