<svg width="151" height="60" viewBox="0 0 151 60" fill="none" xmlns="http://www.w3.org/2000/svg">
<g clip-path="url(#clip0_392_550)">
<path d="M19.6736 45.8156C23.6166 45.8156 26.8132 48.9915 26.8132 52.9083C26.813 56.825 23.6165 60.0001 19.6736 60.0001C15.7309 59.9999 12.5352 56.8249 12.5349 52.9083C12.5349 48.9916 15.7307 45.8157 19.6736 45.8156ZM34.7058 0.0811768C41.2849 -1.03047 39.3498 9.55367 38.0593 13.0685C35.7197 19.4397 30.1117 24.3146 23.3611 25.5216L23.3542 34.1691C31.4724 35.4443 38.0066 42.5544 39.0876 50.587C39.5117 53.7435 40.0819 60.0215 35.1716 59.6388C30.8628 59.3025 31.9809 54.519 31.7312 51.7355C30.6968 40.1988 14.3317 37.1291 8.90991 47.5402C7.12672 50.9647 7.97731 52.8065 7.58179 56.2111C7.18617 59.6154 2.72085 60.9754 0.756592 58.0323C-0.502035 56.1444 0.123072 50.88 0.644287 48.6525C2.32365 41.474 8.60948 35.3279 15.9783 34.1691L15.989 25.6095C9.26858 24.2227 3.51024 19.4035 1.22925 12.9474C0.310837 10.3486 -0.163704 6.68934 0.0524902 3.94739C0.466441 -1.28174 6.95725 -1.09208 7.55737 3.33118C8.06853 7.10698 7.00714 8.75224 9.18921 12.5314C14.9594 22.5234 30.727 19.1423 31.7312 7.94836C31.9625 5.3629 30.8981 0.725461 34.7058 0.0811768ZM87.1423 15.2599C95.0006 15.2601 101.372 21.5895 101.372 29.3956C101.372 37.2035 95.0006 43.5312 87.1423 43.5314C79.2839 43.5314 72.9119 37.202 72.9119 29.3956C72.9119 21.5893 79.2839 15.2599 87.1423 15.2599ZM49.9548 15.5626C51.1295 15.323 52.3059 15.6143 53.1052 16.5197L59.8054 26.8419C61.8249 24.0317 63.466 20.9535 65.4167 18.1017C66.0821 17.1294 66.7609 15.8027 68.0564 15.5646C71.3915 14.9519 72.5868 18.105 71.1472 20.797C68.9267 24.9473 65.2694 28.9709 62.9851 33.1661C62.5946 35.5616 63.2582 38.5485 62.8679 40.8741C62.4774 43.1999 59.427 44.1692 57.7292 42.5626C55.8808 40.8129 57.0689 35.5224 56.6667 33.13C54.3892 28.9131 50.6 24.8677 48.3894 20.7091C47.7861 19.572 47.4143 18.4876 47.9607 17.2423C48.2809 16.5149 49.1709 15.7241 49.9568 15.5626H49.9548ZM104.463 15.7657C110.57 15.9838 117.29 15.2167 123.332 15.6827C125.698 15.8659 127.202 17.5094 126.381 19.8917C126.104 20.6958 124.81 21.8488 123.994 21.8488H117.374V40.5802C117.373 40.9419 116.683 42.2965 116.377 42.5861C114.986 43.8927 112.373 43.4519 111.535 41.7189C111.458 41.5607 111.174 40.8361 111.174 40.7462V21.8507H104.553C104.297 21.8507 102.954 21.0815 102.726 20.8351C101.218 19.2085 102.135 16.0705 104.463 15.7657ZM132.764 19.0753C133.958 16.6631 135.83 15.2497 138.667 15.7657C141.61 16.3018 142.573 19.5232 143.597 21.8556C146.074 27.4942 148.233 33.2761 150.733 38.9064C151.678 41.307 150.016 43.7417 147.328 43.2872C144.774 42.8559 144.509 39.2377 143.49 37.3615L131.641 37.3566C130.706 39.2361 130.297 42.871 127.808 43.2872C125.197 43.7232 123.467 41.2056 124.506 38.84C127.522 32.4987 129.671 25.3316 132.764 19.0753ZM88.8562 37.3898C98.6252 35.2122 96.1669 20.2044 86.3308 21.2316C75.32 22.3803 77.9443 39.8219 88.8562 37.3898ZM133.966 31.673H141.173L137.487 22.8497L133.966 31.673Z" fill="#949494"/>
</g>
<defs>
<clipPath id="clip0_392_550">
<rect width="151" height="60" fill="white"/>
</clipPath>
</defs>
</svg>
