<svg width="118" height="36" viewBox="0 0 118 36" fill="none" xmlns="http://www.w3.org/2000/svg">
<path d="M28.5381 2.41214C31.9691 -0.841867 37.317 -0.797699 40.46 2.50882C43.5556 5.76665 43.3761 10.9478 40.0508 14.3047C39.4654 14.8959 30.2618 24.0883 27.7979 26.6221C27.7629 26.6582 27.7308 26.6977 27.7021 26.7393C27.4747 27.0645 27.4781 27.4718 27.7119 27.8028C27.9642 28.1612 28.3988 28.3192 28.8125 28.2032C28.9351 28.1695 29.0566 28.1339 29.1777 28.0948C29.3439 28.0414 29.457 27.9007 29.5566 27.7764C29.5949 27.729 29.6328 27.6803 29.6738 27.6397C29.7317 27.5821 48.5505 8.86697 54.6094 2.81546C56.4091 1.01782 58.1756 0.563941 60.167 1.38968C61.9489 2.12842 62.7043 3.52455 62.6934 6.05765C62.6561 14.9208 62.6675 33.3999 62.6689 35.4678H55.418V11.7998C55.3622 11.8572 40.0749 27.5702 33.8926 33.6075C32.2613 35.2004 30.1108 36.0525 27.8311 35.9981C25.5909 35.9472 23.5304 35.0344 22.0283 33.4287C18.9292 30.1159 19.1146 24.9346 22.4512 21.6338C25.6526 18.4666 32.5879 11.5889 32.5879 11.5889C33.4182 10.77 34.2763 9.92236 35.0537 9.0264C35.1066 8.96584 35.1486 8.89425 35.1816 8.80765C35.2983 8.49419 35.2419 8.14449 35.0312 7.8721C34.8285 7.60891 34.5117 7.45414 34.1855 7.45414C34.1509 7.45414 34.1157 7.4564 34.0811 7.46C33.9646 7.47206 33.8499 7.48952 33.7363 7.51468C33.5287 7.56144 33.3774 7.74039 33.2441 7.89847C33.1978 7.95374 33.1509 8.00869 33.1035 8.0557L26.3291 14.793C21.394 19.7007 5.76262 35.1423 5.12793 35.7627L0 30.7061C1.94708 28.7587 25.3023 5.48081 28.5381 2.41214ZM73.0264 0.766636L73.0947 9.70023C73.1116 11.9348 74.9323 13.7289 77.1768 13.7295L95.9609 13.6162C97.302 13.6287 98.4745 13.6473 99.5449 13.6729C101.591 13.7222 103.399 14.0102 104.916 14.5293L105.019 14.5635C105.066 14.5791 105.115 14.5948 105.158 14.6104L105.245 14.6397C107.407 15.4509 109.128 16.6609 110.361 18.2354L110.695 18.6612L110.693 0.766636H117.995L118 35.2344H110.698L110.697 30.0577L110.366 30.459C109.795 31.1526 109.104 31.8137 108.312 32.4239C107.598 32.9731 106.829 33.4469 106.026 33.8321C104.244 34.6865 102.25 35.1191 100.101 35.1192H100.097C93.9408 35.1171 77.7369 35.06 77.6387 35.0596C74.1745 35.048 71.0794 33.8262 68.9248 31.6202C66.8725 29.5187 65.822 26.6528 65.8877 23.3321C65.9892 18.194 65.8892 1.21551 65.8906 0.766636H73.0264ZM95.4824 20.7159C93.4162 20.7104 91.5432 20.7228 89.7324 20.7344C87.3471 20.7499 85.0949 20.7654 82.5098 20.7412C81.4011 20.7313 80.2075 20.7253 78.998 20.7569C78.354 20.774 77.8368 20.7626 77.3809 20.752C75.9883 20.7187 75.2919 20.7042 74.2168 21.6856C72.9405 22.8507 72.7618 24.5726 73.75 26.1797C74.4052 27.2452 75.6195 27.7719 77.4609 27.7901C81.2534 27.8278 85.1747 27.8668 89.1191 27.8819C90.0588 27.8855 91.0022 27.8976 91.9463 27.9092C93.0711 27.9228 94.2105 27.9366 95.3545 27.9366C97.1793 27.9366 99.0167 27.9014 100.825 27.7735C100.969 27.7631 101.113 27.7484 101.256 27.7285C102.54 27.5488 103.967 27.2443 104.643 25.9043C104.798 25.596 104.902 25.2583 104.949 24.9024C105.069 24.0145 105.104 22.4014 104.004 21.5743C102.92 20.7585 102.056 20.7542 100.282 20.7578H100.22C99.4713 20.7578 98.5913 20.7479 97.7168 20.7373C96.9349 20.7278 96.1577 20.7178 95.4824 20.7159Z" fill="#F5F5F5"/>
</svg>
